<mxfile host="Electron" modified="2025-03-17T07:27:58.500Z" agent="Mozilla/5.0 (Windows NT 10.0; Win64; x64) AppleWebKit/537.36 (KHTML, like Gecko) draw.io/22.1.2 Chrome/114.0.5735.289 Electron/25.9.4 Safari/537.36" etag="-APUmV78xp0hBw2YI6za" version="22.1.2" type="device">
  <diagram name="Page-1" id="JV4huIVwSfYb2swB1_Mw">
    <mxGraphModel dx="1036" dy="613" grid="1" gridSize="10" guides="1" tooltips="1" connect="1" arrows="1" fold="1" page="1" pageScale="1" pageWidth="1100" pageHeight="1700" math="0" shadow="0">
      <root>
        <mxCell id="0" />
        <mxCell id="1" parent="0" />
        <mxCell id="egSWcZm_THue_R0mHn_a-1" style="edgeStyle=orthogonalEdgeStyle;rounded=0;orthogonalLoop=1;jettySize=auto;html=1;" parent="1" source="egSWcZm_THue_R0mHn_a-2" target="egSWcZm_THue_R0mHn_a-3" edge="1">
          <mxGeometry relative="1" as="geometry" />
        </mxCell>
        <mxCell id="egSWcZm_THue_R0mHn_a-2" value="" style="fontColor=#0066CC;verticalAlign=top;verticalLabelPosition=bottom;labelPosition=center;align=center;html=1;outlineConnect=0;fillColor=#CCCCCC;strokeColor=#6881B3;gradientColor=none;gradientDirection=north;strokeWidth=2;shape=mxgraph.networks.users;" parent="1" vertex="1">
          <mxGeometry x="140" y="180" width="40" height="40" as="geometry" />
        </mxCell>
        <mxCell id="egSWcZm_THue_R0mHn_a-3" value="" style="outlineConnect=0;dashed=0;verticalLabelPosition=bottom;verticalAlign=top;align=center;html=1;shape=mxgraph.aws3.route_53;fillColor=#F58536;gradientColor=none;" parent="1" vertex="1">
          <mxGeometry x="124.75" y="243.63" width="70.5" height="62.75" as="geometry" />
        </mxCell>
        <mxCell id="egSWcZm_THue_R0mHn_a-4" value="* aws LB Controller -&amp;nbsp;for auto managing ALB/NLB" style="text;html=1;align=center;verticalAlign=middle;resizable=0;points=[];autosize=1;strokeColor=none;fillColor=none;" parent="1" vertex="1">
          <mxGeometry x="50" y="640" width="290" height="30" as="geometry" />
        </mxCell>
        <mxCell id="egSWcZm_THue_R0mHn_a-5" style="rounded=0;orthogonalLoop=1;jettySize=auto;html=1;entryX=0;entryY=0.5;entryDx=0;entryDy=0;entryPerimeter=0;" parent="1" source="egSWcZm_THue_R0mHn_a-3" target="egSWcZm_THue_R0mHn_a-9" edge="1">
          <mxGeometry relative="1" as="geometry" />
        </mxCell>
        <mxCell id="egSWcZm_THue_R0mHn_a-6" value="" style="sketch=0;points=[[0,0,0],[0.25,0,0],[0.5,0,0],[0.75,0,0],[1,0,0],[0,1,0],[0.25,1,0],[0.5,1,0],[0.75,1,0],[1,1,0],[0,0.25,0],[0,0.5,0],[0,0.75,0],[1,0.25,0],[1,0.5,0],[1,0.75,0]];outlineConnect=0;fontColor=#232F3E;fillColor=#ED7100;strokeColor=#ffffff;dashed=0;verticalLabelPosition=bottom;verticalAlign=top;align=center;html=1;fontSize=12;fontStyle=0;aspect=fixed;shape=mxgraph.aws4.resourceIcon;resIcon=mxgraph.aws4.eks;" parent="1" vertex="1">
          <mxGeometry x="490" y="150" width="30" height="30" as="geometry" />
        </mxCell>
        <mxCell id="egSWcZm_THue_R0mHn_a-7" value="Region" style="points=[[0,0],[0.25,0],[0.5,0],[0.75,0],[1,0],[1,0.25],[1,0.5],[1,0.75],[1,1],[0.75,1],[0.5,1],[0.25,1],[0,1],[0,0.75],[0,0.5],[0,0.25]];outlineConnect=0;gradientColor=none;html=1;whiteSpace=wrap;fontSize=12;fontStyle=0;container=1;pointerEvents=0;collapsible=0;recursiveResize=0;shape=mxgraph.aws4.group;grIcon=mxgraph.aws4.group_region;strokeColor=#00A4A6;fillColor=none;verticalAlign=top;align=left;spacingLeft=30;fontColor=#147EBA;dashed=1;" parent="1" vertex="1">
          <mxGeometry x="310" y="70" width="620" height="560" as="geometry" />
        </mxCell>
        <mxCell id="egSWcZm_THue_R0mHn_a-8" style="edgeStyle=orthogonalEdgeStyle;rounded=0;orthogonalLoop=1;jettySize=auto;html=1;" parent="egSWcZm_THue_R0mHn_a-7" source="egSWcZm_THue_R0mHn_a-9" edge="1">
          <mxGeometry relative="1" as="geometry">
            <mxPoint x="-110" y="205" as="targetPoint" />
          </mxGeometry>
        </mxCell>
        <mxCell id="egSWcZm_THue_R0mHn_a-9" value="" style="sketch=0;points=[[0.015,0.015,0],[0.985,0.015,0],[0.985,0.985,0],[0.015,0.985,0],[0.25,0,0],[0.5,0,0],[0.75,0,0],[1,0.25,0],[1,0.5,0],[1,0.75,0],[0.75,1,0],[0.5,1,0],[0.25,1,0],[0,0.75,0],[0,0.5,0],[0,0.25,0]];verticalLabelPosition=bottom;html=1;verticalAlign=top;aspect=fixed;align=center;pointerEvents=1;shape=mxgraph.cisco19.rect;prIcon=load_balancer;fillColor=#FAFAFA;strokeColor=#005073;" parent="egSWcZm_THue_R0mHn_a-7" vertex="1">
          <mxGeometry x="18" y="180" width="64" height="50" as="geometry" />
        </mxCell>
        <mxCell id="egSWcZm_THue_R0mHn_a-10" value="aws LB Controller" style="text;html=1;strokeColor=none;fillColor=none;align=center;verticalAlign=middle;whiteSpace=wrap;rounded=0;" parent="egSWcZm_THue_R0mHn_a-7" vertex="1">
          <mxGeometry x="20" y="163.63" width="60" height="30" as="geometry" />
        </mxCell>
        <mxCell id="egSWcZm_THue_R0mHn_a-11" value="customer account" style="text;html=1;strokeColor=none;fillColor=none;align=center;verticalAlign=middle;whiteSpace=wrap;rounded=0;" parent="egSWcZm_THue_R0mHn_a-7" vertex="1">
          <mxGeometry x="80" y="20" width="130" height="30" as="geometry" />
        </mxCell>
        <mxCell id="egSWcZm_THue_R0mHn_a-12" value="" style="sketch=0;points=[[0,0,0],[0.25,0,0],[0.5,0,0],[0.75,0,0],[1,0,0],[0,1,0],[0.25,1,0],[0.5,1,0],[0.75,1,0],[1,1,0],[0,0.25,0],[0,0.5,0],[0,0.75,0],[1,0.25,0],[1,0.5,0],[1,0.75,0]];outlineConnect=0;fontColor=#232F3E;fillColor=#ED7100;strokeColor=#ffffff;dashed=0;verticalLabelPosition=bottom;verticalAlign=top;align=center;html=1;fontSize=12;fontStyle=0;aspect=fixed;shape=mxgraph.aws4.resourceIcon;resIcon=mxgraph.aws4.eks;" parent="egSWcZm_THue_R0mHn_a-7" vertex="1">
          <mxGeometry x="150" y="90" width="40" height="40" as="geometry" />
        </mxCell>
        <mxCell id="egSWcZm_THue_R0mHn_a-13" value="Private subnet" style="points=[[0,0],[0.25,0],[0.5,0],[0.75,0],[1,0],[1,0.25],[1,0.5],[1,0.75],[1,1],[0.75,1],[0.5,1],[0.25,1],[0,1],[0,0.75],[0,0.5],[0,0.25]];outlineConnect=0;gradientColor=none;html=1;whiteSpace=wrap;fontSize=12;fontStyle=0;container=1;pointerEvents=0;collapsible=0;recursiveResize=0;shape=mxgraph.aws4.group;grIcon=mxgraph.aws4.group_security_group;grStroke=0;strokeColor=#00A4A6;fillColor=#E6F6F7;verticalAlign=top;align=left;spacingLeft=30;fontColor=#147EBA;dashed=0;" parent="egSWcZm_THue_R0mHn_a-7" vertex="1">
          <mxGeometry x="100" y="50" width="480" height="470" as="geometry" />
        </mxCell>
        <mxCell id="egSWcZm_THue_R0mHn_a-14" value="VPC" style="sketch=0;outlineConnect=0;gradientColor=none;html=1;whiteSpace=wrap;fontSize=12;fontStyle=0;shape=mxgraph.aws4.group;grIcon=mxgraph.aws4.group_vpc;strokeColor=#879196;fillColor=none;verticalAlign=top;align=left;spacingLeft=30;fontColor=#879196;dashed=0;" parent="egSWcZm_THue_R0mHn_a-13" vertex="1">
          <mxGeometry x="-80" y="-32.5" width="565" height="535" as="geometry" />
        </mxCell>
        <mxCell id="egSWcZm_THue_R0mHn_a-15" value="" style="rounded=0;whiteSpace=wrap;html=1;fillColor=#ffe6cc;strokeColor=#d79b00;" parent="egSWcZm_THue_R0mHn_a-13" vertex="1">
          <mxGeometry x="40" y="30" width="350" height="180" as="geometry" />
        </mxCell>
        <mxCell id="egSWcZm_THue_R0mHn_a-16" value="" style="edgeStyle=orthogonalEdgeStyle;rounded=0;orthogonalLoop=1;jettySize=auto;html=1;" parent="egSWcZm_THue_R0mHn_a-13" source="egSWcZm_THue_R0mHn_a-17" target="egSWcZm_THue_R0mHn_a-20" edge="1">
          <mxGeometry relative="1" as="geometry">
            <Array as="points">
              <mxPoint x="190" y="135" />
              <mxPoint x="190" y="135" />
            </Array>
          </mxGeometry>
        </mxCell>
        <mxCell id="egSWcZm_THue_R0mHn_a-17" value="pod" style="rounded=1;whiteSpace=wrap;html=1;dashed=1;dashPattern=8 8;fillColor=#f9f1f1;" parent="egSWcZm_THue_R0mHn_a-13" vertex="1">
          <mxGeometry x="90" y="80" width="70" height="110" as="geometry" />
        </mxCell>
        <mxCell id="egSWcZm_THue_R0mHn_a-18" style="edgeStyle=orthogonalEdgeStyle;rounded=0;orthogonalLoop=1;jettySize=auto;html=1;" parent="egSWcZm_THue_R0mHn_a-13" source="egSWcZm_THue_R0mHn_a-19" target="egSWcZm_THue_R0mHn_a-17" edge="1">
          <mxGeometry relative="1" as="geometry" />
        </mxCell>
        <mxCell id="egSWcZm_THue_R0mHn_a-19" value="pod" style="rounded=1;whiteSpace=wrap;html=1;dashed=1;dashPattern=8 8;fillColor=#f9f1f1;" parent="egSWcZm_THue_R0mHn_a-13" vertex="1">
          <mxGeometry x="180" y="80" width="70" height="110" as="geometry" />
        </mxCell>
        <mxCell id="egSWcZm_THue_R0mHn_a-20" value="pod" style="rounded=1;whiteSpace=wrap;html=1;dashed=1;dashPattern=8 8;fillColor=#f9f1f1;" parent="egSWcZm_THue_R0mHn_a-13" vertex="1">
          <mxGeometry x="270" y="80" width="70" height="110" as="geometry" />
        </mxCell>
        <mxCell id="egSWcZm_THue_R0mHn_a-21" value="" style="endArrow=classic;startArrow=classic;html=1;rounded=0;" parent="egSWcZm_THue_R0mHn_a-13" source="egSWcZm_THue_R0mHn_a-17" edge="1">
          <mxGeometry width="50" height="50" relative="1" as="geometry">
            <mxPoint x="115" y="275" as="sourcePoint" />
            <mxPoint x="-20" y="140" as="targetPoint" />
          </mxGeometry>
        </mxCell>
        <mxCell id="egSWcZm_THue_R0mHn_a-22" value="" style="sketch=0;points=[[0,0,0],[0.25,0,0],[0.5,0,0],[0.75,0,0],[1,0,0],[0,1,0],[0.25,1,0],[0.5,1,0],[0.75,1,0],[1,1,0],[0,0.25,0],[0,0.5,0],[0,0.75,0],[1,0.25,0],[1,0.5,0],[1,0.75,0]];outlineConnect=0;fontColor=#232F3E;fillColor=#ED7100;strokeColor=#ffffff;dashed=0;verticalLabelPosition=bottom;verticalAlign=top;align=center;html=1;fontSize=12;fontStyle=0;aspect=fixed;shape=mxgraph.aws4.resourceIcon;resIcon=mxgraph.aws4.eks;" parent="egSWcZm_THue_R0mHn_a-13" vertex="1">
          <mxGeometry x="70" y="30" width="40" height="40" as="geometry" />
        </mxCell>
        <mxCell id="egSWcZm_THue_R0mHn_a-23" value="Ingress" style="text;html=1;strokeColor=none;fillColor=none;align=center;verticalAlign=middle;whiteSpace=wrap;rounded=0;" parent="egSWcZm_THue_R0mHn_a-13" vertex="1">
          <mxGeometry x="10" y="90" width="60" height="30" as="geometry" />
        </mxCell>
        <mxCell id="egSWcZm_THue_R0mHn_a-24" value="Private subnet&amp;nbsp; for DB (Multi AZ) +read replicas" style="points=[[0,0],[0.25,0],[0.5,0],[0.75,0],[1,0],[1,0.25],[1,0.5],[1,0.75],[1,1],[0.75,1],[0.5,1],[0.25,1],[0,1],[0,0.75],[0,0.5],[0,0.25]];outlineConnect=0;gradientColor=none;html=1;whiteSpace=wrap;fontSize=12;fontStyle=0;container=1;pointerEvents=0;collapsible=0;recursiveResize=0;shape=mxgraph.aws4.group;grIcon=mxgraph.aws4.group_security_group;grStroke=0;strokeColor=#00A4A6;fillColor=#E6E6E6;verticalAlign=top;align=left;spacingLeft=30;fontColor=#147EBA;dashed=0;fillStyle=auto;" parent="egSWcZm_THue_R0mHn_a-13" vertex="1">
          <mxGeometry x="5" y="260" width="455" height="210" as="geometry" />
        </mxCell>
        <mxCell id="egSWcZm_THue_R0mHn_a-25" value="" style="outlineConnect=0;dashed=0;verticalLabelPosition=bottom;verticalAlign=top;align=center;html=1;shape=mxgraph.aws3.rds_db_instance_read_replica;fillColor=#2E73B8;gradientColor=none;" parent="egSWcZm_THue_R0mHn_a-24" vertex="1">
          <mxGeometry x="275.25" y="72" width="49.5" height="66" as="geometry" />
        </mxCell>
        <mxCell id="egSWcZm_THue_R0mHn_a-26" value="&lt;font color=&quot;#4b7d74&quot;&gt;for EKS (Multi AZ)&lt;/font&gt;" style="text;html=1;strokeColor=none;fillColor=none;align=center;verticalAlign=middle;whiteSpace=wrap;rounded=0;" parent="egSWcZm_THue_R0mHn_a-13" vertex="1">
          <mxGeometry x="110" width="60" height="30" as="geometry" />
        </mxCell>
        <mxCell id="egSWcZm_THue_R0mHn_a-27" value="" style="sketch=0;outlineConnect=0;fontColor=#232F3E;gradientColor=none;fillColor=#C925D1;strokeColor=none;dashed=0;verticalLabelPosition=bottom;verticalAlign=top;align=center;html=1;fontSize=12;fontStyle=0;aspect=fixed;pointerEvents=1;shape=mxgraph.aws4.rds_instance_alt;" parent="egSWcZm_THue_R0mHn_a-13" vertex="1">
          <mxGeometry x="51" y="326" width="78" height="78" as="geometry" />
        </mxCell>
        <mxCell id="egSWcZm_THue_R0mHn_a-28" value="" style="outlineConnect=0;dashed=0;verticalLabelPosition=bottom;verticalAlign=top;align=center;html=1;shape=mxgraph.aws3.rds_db_instance_read_replica;fillColor=#2E73B8;gradientColor=none;" parent="egSWcZm_THue_R0mHn_a-13" vertex="1">
          <mxGeometry x="170" y="332" width="49.5" height="66" as="geometry" />
        </mxCell>
        <mxCell id="egSWcZm_THue_R0mHn_a-29" value="Security Group-rds-private" style="fontStyle=0;verticalAlign=top;align=center;spacingTop=-2;fillColor=none;rounded=0;whiteSpace=wrap;html=1;strokeColor=#FF0000;strokeWidth=2;dashed=1;container=1;collapsible=0;expand=0;recursiveResize=0;" parent="egSWcZm_THue_R0mHn_a-13" vertex="1">
          <mxGeometry x="320" y="260" width="140" height="40" as="geometry" />
        </mxCell>
        <mxCell id="egSWcZm_THue_R0mHn_a-30" value="Security Group-eks-private" style="fontStyle=0;verticalAlign=top;align=center;spacingTop=-2;fillColor=none;rounded=0;whiteSpace=wrap;html=1;strokeColor=#FF0000;strokeWidth=2;dashed=1;container=1;collapsible=0;expand=0;recursiveResize=0;" parent="egSWcZm_THue_R0mHn_a-13" vertex="1">
          <mxGeometry x="340" width="140" height="40" as="geometry" />
        </mxCell>
        <mxCell id="egSWcZm_THue_R0mHn_a-31" style="edgeStyle=orthogonalEdgeStyle;rounded=0;orthogonalLoop=1;jettySize=auto;html=1;entryX=0;entryY=0.5;entryDx=0;entryDy=0;entryPerimeter=0;" parent="egSWcZm_THue_R0mHn_a-13" source="egSWcZm_THue_R0mHn_a-27" target="egSWcZm_THue_R0mHn_a-28" edge="1">
          <mxGeometry relative="1" as="geometry" />
        </mxCell>
        <mxCell id="egSWcZm_THue_R0mHn_a-32" style="edgeStyle=orthogonalEdgeStyle;rounded=0;orthogonalLoop=1;jettySize=auto;html=1;entryX=0;entryY=0.5;entryDx=0;entryDy=0;entryPerimeter=0;" parent="egSWcZm_THue_R0mHn_a-13" source="egSWcZm_THue_R0mHn_a-28" target="egSWcZm_THue_R0mHn_a-25" edge="1">
          <mxGeometry relative="1" as="geometry" />
        </mxCell>
        <mxCell id="egSWcZm_THue_R0mHn_a-33" style="edgeStyle=orthogonalEdgeStyle;rounded=0;orthogonalLoop=1;jettySize=auto;html=1;" parent="egSWcZm_THue_R0mHn_a-13" source="egSWcZm_THue_R0mHn_a-25" target="egSWcZm_THue_R0mHn_a-27" edge="1">
          <mxGeometry relative="1" as="geometry" />
        </mxCell>
        <mxCell id="wCQHv4a0vgo6sGGKfczJ-1" value="Actor" style="shape=umlActor;verticalLabelPosition=bottom;verticalAlign=top;html=1;outlineConnect=0;" vertex="1" parent="1">
          <mxGeometry x="38.18" y="410" width="11.82" height="20" as="geometry" />
        </mxCell>
        <mxCell id="wCQHv4a0vgo6sGGKfczJ-3" value="" style="verticalLabelPosition=bottom;sketch=0;aspect=fixed;html=1;verticalAlign=top;strokeColor=none;align=center;outlineConnect=0;shape=mxgraph.citrix.laptop_2;" vertex="1" parent="1">
          <mxGeometry x="8.18" y="430" width="53.64" height="40" as="geometry" />
        </mxCell>
        <mxCell id="wCQHv4a0vgo6sGGKfczJ-8" style="edgeStyle=orthogonalEdgeStyle;rounded=0;orthogonalLoop=1;jettySize=auto;html=1;exitX=0.76;exitY=0.24;exitDx=0;exitDy=0;exitPerimeter=0;entryX=0;entryY=0.5;entryDx=0;entryDy=0;curved=1;strokeWidth=2;" edge="1" parent="1" source="wCQHv4a0vgo6sGGKfczJ-4" target="wCQHv4a0vgo6sGGKfczJ-7">
          <mxGeometry relative="1" as="geometry" />
        </mxCell>
        <mxCell id="wCQHv4a0vgo6sGGKfczJ-4" value="" style="verticalLabelPosition=bottom;html=1;verticalAlign=top;align=center;strokeColor=none;fillColor=#00BEF2;shape=mxgraph.azure.git_repository;" vertex="1" parent="1">
          <mxGeometry x="100" y="425" width="50" height="50" as="geometry" />
        </mxCell>
        <mxCell id="wCQHv4a0vgo6sGGKfczJ-6" style="edgeStyle=orthogonalEdgeStyle;rounded=0;orthogonalLoop=1;jettySize=auto;html=1;entryX=0;entryY=0.5;entryDx=0;entryDy=0;entryPerimeter=0;" edge="1" parent="1" source="wCQHv4a0vgo6sGGKfczJ-3" target="wCQHv4a0vgo6sGGKfczJ-4">
          <mxGeometry relative="1" as="geometry" />
        </mxCell>
        <mxCell id="wCQHv4a0vgo6sGGKfczJ-9" style="edgeStyle=orthogonalEdgeStyle;rounded=0;orthogonalLoop=1;jettySize=auto;html=1;curved=1;strokeWidth=2;" edge="1" parent="1" source="wCQHv4a0vgo6sGGKfczJ-7" target="egSWcZm_THue_R0mHn_a-15">
          <mxGeometry relative="1" as="geometry">
            <Array as="points">
              <mxPoint x="227" y="360" />
              <mxPoint x="625" y="360" />
            </Array>
          </mxGeometry>
        </mxCell>
        <mxCell id="wCQHv4a0vgo6sGGKfczJ-7" value="" style="shape=image;verticalLabelPosition=bottom;labelBackgroundColor=default;verticalAlign=top;aspect=fixed;imageAspect=0;image=data:image/png,iVBORw0KGgoAAAANSUhEUgAAAJkAAACqCAYAAAC+su25AAAAAXNSR0IArs4c6QAAAARnQU1BAACxjwv8YQUAAAAJcEhZcwAADsMAAA7DAcdvqGQAAHBTSURBVHhe7b35s2XXdd+37jy+1+/1gG4MjQZAgiBAECQlUpRtWU6sRFaiDE5VKskP+TnDf5E/I7LilMvlqZxU5CpZsmPZKjmSLFMywUEkATQxNdDd6PGNdz7n3pvvZ62z773v9evGwG50PxDrvv3OtOf93WvYe599Sj949Xtz+0xQKkY6lovjx6FScYRWzxOluGfxv3SUnzupJP9z4puXPlGujjt9RspM48+tPJ/KcR6NT8PODjsBY+H8XmXFlQ+51WfpORCLsCmG5Mrzox25KXluEkh/vugz07EAV1mNmJoxACZQrIJKrT3Vs6Wrys/d3CqwVlwRj7sFdOTEpQLc4fgdvOb/zyfIPgPisuAQRSloa+A2KxUAKQl4cu5Bzw40+awucFQJdohWq4Rw6Vp8rJTpOPU44jZxpf9B3C8XQYB9KaXP/bj9c0WfCZAtKXjFrFQWDCoCV8Wm4jxzwKFWR5LO4598qbnnDbl6hJQ/XBDPcdAqfMT/SnkcRWhYy6fcizBgyoHm14jw4IP+zP//fNFnRvGnECEw4V4CmXMygFbSedH8HL2tuaK5xcXEyTgrlStyic/Ap8LPApN+DV8KrQxyMPkZzwBggI9Lj1MnlXlutdnYBe/PKz2yIIvGC6JhAUs08+oT+StyH2Ky6uCKI4DjXNyMJvZrQkd4mFatVrFKNYBV1vMyIOOxzp2ruVelPlX6SmcuhOb51GazZZWV9ADuOJ9N/Tn+I50IXptOrDEbCvoFAFco8hyEePXkPoN0DEAWjYaiXWhffown3AQkKPkCkriRCWSAZMZ9AAdHq9QEIHGqStkajbpVKjoXOitV8b2CeZXLiMt0XnY/QQAo8gAqANuMzIiyycQBB8gmk7FcJr8MVyi/3JerOifLXGSuEiUpWS6Hfqd8rICM4yPZKJ+QHjmQLSracxWNu7AM5aL3w6HEmWZVNbBAJEABJsRdpVYNgChMpVqTq1i5XrMqTlwLDgVQAJkr5J6Qzv0eaeqISxcinuErMhdAD8D5mdNUgMry3KbidFNxvnySC3S5uKA4GJwQ8C29O2er2FjgEgDpIgqPhVzEXqT12aBHGGT0/AQumkTn4jZYjQEyAIZlGJwLTlUVwKoSgRzrAlUNwFUVgcK5E9HQIdagEG+gyEEWN53KCWTFfa+k5S1hrGCBorkymQCX9LpZPrPRWEAbZzbJcnG9XKIWo0H+lT6cDX2tIpCFQOd8xagoOPRngR5RkClLajT0MOyyvFQVuAplXucOMh1R1qtycK5avWqtTkvcSjYf7SNOA+cqV4gjKACGo8jJBdAON+fHBdlMnApWWFHiiVtOBbRMnA1wocvlWWaZAMe1c7ZcJZHHKgCziUo6Frg4MjzyOcgeIAUkvCERKuWa+rYUeVfmARu6VYjEaq1m7WZdXKtqZQEKJd7FoMKi4CclX3hzAPi5lzYVGWBESvwtYbNCuk88HmtE4aE9zoiYW0W8JKNrzpPfQjfzMOJeuUA2kv42Hk1sPAhRWikBMsTmSE4g82xF7otojjU9ZJClpJdVGVqYfrrFyPu0BMjqOjYcaOhcjVbNmu0Al1QucS5vQrmACbGJhxVneoJS72dEGg0etAQZz8OPaOnB6UiQ+dkKLFMY/Dj4CnJRrIcELwCYS0+bTKY2GkqUDicC3lBZkdiU6CzNQmz6FJmCp2ihlVgLWk300aWHDLKY10MkkgkHFqImnat/z6ym87ruN5Xbmq1ttB1gcK1KBZCgwwT3i8oWJAougK5GZDSuD5zqPHEcKASpp+bXEZ6rAN2SIl4o+XQcrYApwdhzsrwtchPFz7jtolQnM/3DQBgNxzYaDC0bj2yeSfPUvZIbA4hNwig3Co6OWtQMUS1S47gSu589avQQQYbyq4PcTHpMpvrJdcylYwE0gGKyHKXlWL3RtkazI9ewerMmPSv18YITlWjaBDRupcouAAcH8SaDiNf/yxUZcAelO+la5KcJQoXvdHGAljEuKWJLsUYsEdiLp3MxVh+Hm4wnNuwP3aHfVVU5cMDSTEZBwdnCGCIuzCBiog49FtUZUE7DLo8WpZp/CJQaJPgJQANg7iQWM3EwK9et1mxZd33N1tbb1u3oWgAj0+H0k4JcnhXH4j6YSs2JSw29vBe/BfnN5ROOKQTGx0ejJaCS83se/GAcXu70WPEzzNJqNa271rX2+rpVm03VQ90y9FFxbwwf9NFwzGhgXafUIMW/iPTRo4fGyVKiaYgipzIBGIq9rmvVujVV2W25ZqPh1p6Dxxt92TcWIg9upt6/GLvioHjCP9ccw9E4QYkzFCS/XMHJDorVcFA8X9Lqs1Va+NNDshZ+7uK7uDWdzi2TrjYcj204lAidTBQW8ZkHV4NzSWcLfY0hkBjIdZ2PM4/niPgfMj00kAX3SgCL5TWqPhlbZWt14Fpta7daAptEgLdYyiZgAzxxFSPpqmjFxdBFuWqy1sJ7LgTnPuwUAtAdww3c8iuMu5gOApzTorH8mRI4qrmqVeY6CzDKv9sNkNJGuDNOlu4lseoSPc78/92IYMwUTGUY4PrS1Xq9nlunBAVwFTcMEKEALU2+34tSBh8ePTSQMXqfuS7GsERVDVIVSOpqxLp1uxIbrYbV6mow+fVKXoCs4E5R73KhEAMyBl5rNRkEOsf7JMfNbDzNF6AQs/BniVtNHWCMW8X9oOCankD8c1qeBZGPyGGcM0ZWETcOrru8vwQZFAA9eLZKkS/yN8lz2x/0rdcfWaaMA7KayhIgi8Hc4GjRbaDDeSSmcA+P7t0J7itFYdWkzklQUtEt8grLcRiHqFq707WTJzfFxZo+eU2FAQwPsWAZq0eehch13Sk1bOEoHLcA2XCWyeU2kuMaN9F55m4mLioAyi9xBYdN8S4d17kaOBP3W7oiDuJjaCLP/H6uhhePlGIfeTzgUpw6P0iFD1nMMwGoJgv6hPTRVrdtUkZtqt4zFYjTmKGfq4DwtBT3o0ifCsi8J8vNpJxMpTdlqqyxQDUtxaLBkiqs3WrbWqelY7WYY1SlKcxCx4IUCbNDiXMxKD4X95pLPvq5niPyMmFSqo2NsqkNZLUBgEwWnIMJJwDQ+M7FImL9ecQLAPi5DnQIeGVydAYGg3FU3+K5PE89buYwBbZiZJ8xMdKEg0bnSpTOOK66RHEN0NbXOram+qmTpgo+Vx4YvsVA8lW8uodFvgy1dI8CfSrisiIWADfKKjLVBYhM4JqWmgJQRYCqOcC6nY6vkPDpnANcS07XVCE9AvGEA1AMslK5NO5cHMandvQMnQ2kMEE9yibiTJj4hKHHB3qIj1wVl+4WRBbcRyJSXr3mjtIHWR6yEIlKI4lJiCEaF6NKl5UdrPRw5/HjolxLSvHpv8BKafBcEqdn8LbXl0HQH/pwB+kxeIsR4HATN4XHHaYwGCLOh0XU3gMnRM9UlQx7Z3CVQVaGKMviYK1m2zZktjdZgkMjUfE0jsItGkIVRaOWxQnrEiX1ytRaAmyrMreGAFSSKBzLIuvJIusNR9YbjK2vhkAksvw6xeTxygFSfok4SzDy8wPp3+mi0jhbHg8DjHZ1Lgdnk/icODcVZ9M5Kza4j5+7EXG5buf66Mya9aqtd8Xp223vmMzboma4K7jZo0oPPGdUdK7eOJGIzBGP5abu1NXYsiKbTYnIjluQVXG4lSaiKxeO82hKoFmrCVg1Aa0quDJgiSUmscQSG7gXQbAYaVA4HCHpyyn2A2lwVcTvaRTOz+/4RdgD4VdBBRVh3a0Ql4Aql8hm7jLLshCjLraPDOJE7CymJE9wtprqqNtu2OaJNatgQssHem0s1NS1y/q7x/ew6FOBf65UJuJkgGw2b6riWtZsdqRrdK2FiKSChBHnMu7EtVYcHK4mA6FeZ8Gh/Il7oU5jfQ1ZTjMBWIx2F8K0aHz8RGVHg/AszhNxzr0Pc0eTcy+Vy5f3OCe5myvyo8yAe19vBlfT0bnagXzeGdZ/Ckz9NGQ9A7S1jjhavSFcMWDLypRCFSjC8HdnnJx/+kTKD4SigVWBSgFOlqsRphKVUyn6TBO5iGw2PAehM+DgPFRVchKsqtm6ei0KcM2VGYFVXHCQm+2P59bPxCVniGAqmlBRtdBSfEUFL5+k9CJEgJmhgBh/wlXFDSvJ+T2mcCSaaewiXMSxpINXQav5ASUJUoAL0bkQn3qcXIo5hXQwqygU37uSTroSnR1JgWqtLg8JZKk55bEITFrL3zLOT5Puq+JPk6bCuC6kG4zkjOhtlaYuW1avNWWWMw7Gkmg1lmovJkngMzpKjFDVwbG4L3CxCFEgo5InYgUDcYHBWHqYOFg2VWiBbi5drVTSDeLQHxafQwFxg6EBWKTDEed8KsVZkG+I+1WVHKPolelYkY2U4bEARXNhOUb4uXSgstysWrdcx2mFziKQkJry5NadW3qEUjmU/hKIwAbiPLkg6isMAjmpE1W4IuH1oKi+cN5ZCggpQWYGWNo0HM9srz+yQX9g5fFQHQODgFwjFpgNKOY25SBiWT1+WnTfQBbVAGHJCStyfhSERtOWdLGOOFjTNjcEsLZ6HwCj4uSHRvHG0fVcACqVcmu1EEN6KM5H02Gh0bC9XBUr+ThiabMSwJL0dB1kjEwFETtpsyybV9+It17JrVYSmKY9gWpirZ7AtdMzG+xZabBt0/0bNh/uWk1Ars1injAXoKwhjtFZs3J307ITm2ZrGzaXqMqqVR/nm1SqNlInykoNt6QDpHAsGlzOJ/AjZyl/kEoXR+dUApmAxmCuLwtwYAG5qCP3p8CcMivATeLCesbqHOxPbDqmxLH4kfVpvENQUVmifh8e3echjOBjDBD60IIqggne2bwrTtK09RMt29jsOLufYxV6BQoOagMqELggkqqyHOuM9nvtShT4cMRMFSqnCmZQFX0G8gbys2hAgO3DGxx1zdOSANNQmHbet8Zwy8q9mza5edXmH3xg5d0ds3HfSuOeu8p0JJCQFyxhLDcUaxkq1YaVJObz1prNOutW2zxl1TNnrLx52qZrJ6zX2rB+ras0EWhF+ZWHNMQA2MjP6opayrwg+UfJB1ys9kUHJe9eJysF9DDpWhVHrGPVzfY2wxvi5DPyP1GtwdVZo4boXwlSHD9Nui8gA1h+9MZ1Jh2Ng5ntqyna1mysC2AtazTVeOpdDjJxHh8XAy8CDRygrhr1qSGspyKuscA1GGY2zKTDyCsDnrrtBMjgdP5CiY7+xngZUTGJCp7nVpU1t6Fjc/+27V/8oeVX3rbaznVr9resMRmYvwagdOE+U3EGhhx4nwALOJwaXOgF7Lk461QifyTAjcXdamfPWeOJ8zZ7/DnLTj9lk3rLxpW6uJtENGvh9J+XRSgJdABklH1BOlf8dLqaOCMDrxXlCB/Os3Rff1TJCkU9kK+9vYntbPd9AWTV16MBbJVd5Uaf9GCE1+FAFJ8C3ReQMZJPJHAPwBWj0Fg9quRyTeJx3dakh7UaIdpczXWQAQvd0Z8uVbFla0gEMZbuHFH3hzL590YT6WJUmRII7zzVf4UrGm0+p1ERcarY8sRq+b61s4FtzsY2v/G+DQSs3uW3rbp93briWJ18ZC25iuuABTdUxJQkEzNi4BjQsS6yqg4QqyHoIA3nbBOBcCxuk1cloOoSlZtPWu2Zl6xy/lnLTp21afe0jeVXTMbm6jQOBtJYARm0BBpli3wALjhZVS6NHfLAjY7kvaC4FtdU/ra3e7a3s6u8ehf3uvUXVXyOMyoO74eieOB0n0AGJOBi4jKydBiqkFqtJqrL+mnZ5uaadaToUyGRGJxMlSBlgSqnEuvSnRqqVMaC6LHTfC7xmFtPri+0ZQrscKCiqGyAqv9UGHHO5hLLAnSpnFlVAFvPt62zfcuq1y/Z8NKrNt36wKy3a61sbK1pZg2BCwDBoYIUi3o8cSHmWUAZfBS9hqU24o4AxvfPUFrKD+IUpT8Tx87qbRt0Tghg56z+zJet+vSLNjtxzgYqf1/lYjDaSX6XpPwvWpzKCc6FT84AmetphSfqidNFEFGANOp+LJ1sf2fPhr2+dNAVkKGnOTcruGEEFa3G9ODo/oCMf8o97ZWJe2VlentToKhbt9O1U9LFWGxIAecClpvxiDTdgGtRkQ4wNQTXDFyORlPri4P1xEUmNKKekY4PJUgvCyuKRorGg4tRkIoNxMFuWePmuzZ/83WbX3rdar03rZEPrKF4a0JqBdHsyhvijOZ0aOkaxzlxScyDKuefiDs9E7fwQgoMHla6nvkMBqCUnlgr2Uh62bB7zirPvWT1F16x4cnHbb+9Ia4Hd5fYLQZOAUXknyso4uXcnbJByWri7F53BdAAzhKY8ufn1L3HZiNZm9u3d2Qoh4gOLiaOrfy7LPB4FYgMeAoPnu5LKmSXzLv+Qu9WAzB5W67XJSobsuhUWegGuou2RuFpWBJneUydHotORPuKUOr3xG321OhjRYwCDeHf0+GoK1RjxGyJNWg631D8m4Pb1rzyhmWv/ZnN337VOjuXbUMVvp6VxMUkhqYSQcqf+IQC0shFpIn8WvnzIQAAwA/ug3+Ap3MBO+ZOUbwzXY/1VNaqjIb10Z6tbV8xe/0vLHv131jnyuu2qXt1KeMA1ruY4og3r4AMnSeOnnYiZQkj0mcJGEfTObkkR5zjII6+2gM9Uo7VK8yk8B4qXS4METoDBMeDWxeBPyW6fyBTVCVetnXuIIDJ9GewtVFHrwixE1oVQAslv6oWrkungYNhALi4lWjcFyj6eS4OpspzA4CMunBSSlSU/AqULrK8bVS5auDuYNsaV9+2+Rs/sKo4WHv/mnVmfT0DjExl1Rf5iy0NyHhwBpzrS+64htPiSJOHMRzi2x4ovzCzGUMmlUz3KJf8itNVp7l1pQeuDbdt9s6PbPCj71j1/Z/aibE4qcRuTHyrkVNviUxw4uQMBipuz8Sx/Z1Ngc3BpdsAzd0CK9GMLBLAIqfea7WG7iyBRrd+WBS5uw8UPQwuRq8RZxKb7zRrPgAKi/L6KMrpVaQbgIxRfLWZP2P0e280st545PN6hEFMJJHimdU5OiDcTYxJR4mx8sjqky0rXfmp5QKYva1G3e9ZOx/bjPVdSiMri9fIZRJbmTgnS73Rvch5uJQW3Pjgfd2U474SdD9yhMVbQYTBMPCbAlp1KuNj1LPxu2/Y8Md/YbX33xKXGwlo4lni6ryRFJC5k4pUnQAS1jgrZX2VyRJZd6VarW4NlqyrjHBIQBaOGpSjh6xm/gETqd0HAmAMlgpgFSn86o7MSTbEuikiPzgO1UPRuNtQY6OH+RCGiIHWfpbZznhogkb4TfXg9ao04iCQyT8VKA+I4Pa0b9Vb71j2xp9b6d0f2/r+TVuTDlYTwFhaPVWFl06esPJjp6187oyVT5+yebdrc5Z2e6xyoN4TkvN0+bfq7k4OSvQz72DiuYAhn4ij5bYx3rHypR/a8Pv/zupX3rWN6djacF5/z5K0vXB3UMoNUcPdfP2bgMYauBQqcTSy7iBX2nSSMiKzzfxwS0AjXyEy0TNDfCZ373LdL7ovIIsCC2QugtiPoi69oCZdS0VBpEjkxAyAV4k4WOhhiEkYHTSWOOhLDxuL6+USkd7ZFhQ9z9OhRnWJyGIuoKuKb9y+YfmbP7Ly+z+WmLpu3VJfKOwphJTfqtJY61r15KbVTm5Y9dSmVXRe3ly3kjrCgXrmfHGdLlY93IVAAQ3phgANzai/bOtMQMuH1h3dtPLl1yy7+H1rbF23zngiQwQ/ir0o/ypFOcM5KT7O0b3ojPELf3jBUUO+NEg/xvxqDV6CrkttEbjc2Ai9L3G04GqfDn2ClFLxEkUxffqGsTFF2ekwRwmXcrtLz9T7VJtYlkCFAUeHTRENPb8/GvuIvm+uokoKHSK5IE9ZgeBzDGPUpbc1dnfNLr1l07dfs46U/pb11SYDpSVFm0QA84muldqydmvoYoq7UbNyp2OVTlvPE69dLdM9aMFeyVmcu/hUrwjdR4migwpkPtovsViXYdDNd2z23us2VmdoMpSClIe9F3EsUi9OvKw4PV6c6wcnc6ARbJkV0fKCelWxHWhwtTTcgi4ag9acR6f9NOhjgkzgUAGrAgVzYpSUoYPc6sYrbbwQwnZN7Q7bNOEfgLnt4+CgULzsUa2h6EfFiYHZYDy1gZR9zgtk+NGheKgmmBxmVL42H1sz37XZjbcsl4Ld3LkmfYetmJSO8sUSGJYpYw1WarImVdkyYb3CS4hpWWAlxChiV2kgufyIUzreuHc0YuHUERxs/PlRaWLmlmNXHue23NMzgFcWh2tLdLd2rlr20+9Z5dq71sz6PpRCOd26xK+CYWGTSkoK1YAO6nqoYgNgCExqM+WbplhkujglMDsc1ZrME6tzqY1mzOHqSJqQB/GzB0sfE2RUApYhvRRuAhCqKjwcrK4ylqUHSFQ21LBlKlvKqnq1N4CKCVUYXJQuhOJMAV1MCmBYlYDDByZch6DxyR4uKs/rnXSlz9QlDqv96za9dtFKt9+17hwORuUTVgCa4QQutdKc9xfF9co+Ek5HEZ/UOaj2hnJH+skViYmi3Txl/a3mZ1l1CiFpmcsSZqm34uVaoJmprAwQz2TZlsWl2wJW/fZ7NnnvJ1bevWENGQdY2ZFWiDrwCdBWictUg5SQ0X1fWetPIEWgjMZPp0UZWN3RlMgEaHS40Mk40m6KjWARwQOlZU3dg1IhoSgalaijZxKuoWhUqRX1nGZLMGHYwX0CJD3TqXduIiiIsIwajWWej6Twh2+BTKCoUGESJQBuNYuE505XrdCS5ZZff8+ym++Lo0nJL0Qx+WDAEw7m43bUJWuCJI5LOFbQ6nq+37f5YOR58+U8cojocAWtZrgg51z+IDVpXCbuBdAjH9zXP8Xr3EmtDj+pToY2eP8dm9/+QPkeGtt9VliiIyOBzKQ4FcTzkRzXcU/wUFw+/1vcu5OWoX2vNoGMhZVw8WgvhSW/dwl9v+meIDuQDSoyHeW8CByTU01Wa0tRiEcHmByNHXdw/tDj4u2hIUuRdUXhaYyyIvdtBwhLQitEWAZ22+KQneGuza9dstL2dfGtWG1A96UH44KUAxqjJx1tX4bAcCQ3NOvLMNhT+NEoxCSV74AI50AijkU8B8l1sBW/ATyR/EdnKq4L4gpH52E6a75908bMo/a3JeIHVpXF6UManhn93SVdJy9juAAaAYpnh0mJIjkaxYaAqAbc9Go9mMUHSvcEGUT+V9uacweYkOTv/Ol6Ch6EkLIQwJgXzxF9XpJC5FHxiEnfXlN38MROhANZlK4nKaB86IfIVMhFxRXxuCOmmdXGA4nID6xy64ost32rTQSWKZwAIqDnwB3K91TGwezmbbMtGQm3tuRu23xvXyiXeMNvRC1aTatwH7lFwl/60UniSFfzLqS8qMGV3Ho+FsjesuzWe1bN+wKZwC8VgGktKRgrsd3pIIZl2CbU15XpL+4vfUUH8DPv8FibsUTcL3Qozql3HYpgS3efydv7TioaymUNrDU51FoAxlOJFeUwLBd5U49ht0N2NoxXxSCHi+cbaFVlTmNmc5ddCHkvEkGJ7hLsT34VmSvv3Nct4qaJeEYv9mkpicrh1XcFlqvWkcipegMpf3pO1gEoYHQ7SvdZSl2Ca4l72Y6cRKVzNXFRX12h2N38L5yndcB9VKKs8UsUA8mpFBhNU2uLczXExcY3r1hl0vM3rqoL8YULOpyL5PACF2M2QLUkl8Ks+FI5vL3geABMnZsXk923RwKFv0W59RcG2jIP94No7yNIidDaVI4fI9mYQ1QQ505hrnsTKYMsH0Yn8yzC9leISmcSnBnDxKGkJlumQoc+FGCl8O7wgMfCLX46L0l/mfW2bXrjqtV7e9aY5LLS4FjRtOEWsNR9nJ4DNFl4DJLOceJ8bIvORDucJojjx3XLwwHylpTTs5QnLjCTGvOJtSZ9mwpktr8T6eOVshblpUMtnQcNB6VbDrTojA5h7hfPII4wBYZpaJuAI5CnnWryIPGptlwN8yDoCJApuQJYHIsiK2PcoToYQeZLHoxRhKVSrtWkizGFhMItv6mi5KhgHxxUQTGeCZWJ07G6gj3JUIzJBmBD7DIFxFotB3SqNY9NcQkQFQGltL9t9b3b1pXFWPFR3hCywIxgCyJoIjil91Y5+kl6CLh1GsAMxzjeKsjvcCksEXma+glUi8rEW3Evfimc6rMUG9w1pgNr7N2yikA2haOrgt0ulTe4Uyq7J6n74fgf9YVjZiXX85g5JfaiBAXAOad8FenJ9RZ7uzWdq83mK8MZApp3dIXAPQha1Mu9KBRjZU4WGy/nxhab6glApqS+CSeRKHTF0sVekeWiUSqATIXD6CTBDFEpsIAP6gPfgJge6eDCn24yIp4cS4irqvQ63KfXs/KgF+c0BgEUM//vSe5N/xxoXBwMceedu9ABTwlId5KDDK5PeiqljxnKUVpWy1aG+zaTvuh9GovYy3BnLg7e0RnxyRHMxaGLzaB0XFDyTnnV0eOll6Idi7aUsFY4gCY/KyndL7oLyIqEvEfICxVVcC4GXbMSm7Q1lGF6Q8V4pYsJcYYu0EG8qCt59aXNcvxmAuTYtxunt/L0zoK5iNORqBxkDjCTuS8mr7DzvhpnIuWf7xx5o0XDrdICe/ciPb8z9Z+RSJcYC24Suz7KFYdwcCjldzSwfH83BreFBBTyePHl6GYpgi6IU/TfhZV5iPBPTF6XRdq+yU25ahMxh4nakiPLGpl3ZjYg0sbz/aOjS+OJkGDhHOmM8rDrX10gayljApr3CLFi5irTNgPeugXp1GNS5flnZeh9usfSFV5w9cFW7+mFi+ogpNPhovLU+kObqmHYrsA/piXxA9hcYKymTbXrOrnVZz6JLOecRuyThjuQFtfJFbc+lACTrwIo4vXf0cR9H8yejKVf7ll5MrEYw6WhJRFUr8qh/zyeIi+pPlfj5bbT4mRJLjDROeV4j6FWZxZEaonKzqqUsSTPWKDLYB60L6LT8+81fd/o7rF5pmGhsFe8xTkj+5nFOvdMmUIviI3hDhY+EZUUof3CR6tZG+WNf5dQociGQ3yiq7lo1a8qMVsb88oXkyyMsMVUDuY/z/l9JPJk70z7k9BqiodjTHlK5Yl/UZt1NT5Aq0i35LURf2GFzs25fBDXHTn80OIlD1G73mqATNE2BTJYGgsm2dFyovNMgINZTAWs4GSkf3/qJdERIFMCjmQS45gSRKFESZQOVi7mKuWHJT4+05+4BWVMTpQGWIkFLsYWTsstm6BlgWAGSf8LHTCe+SoOdXWmqFhvz3uRqWd7kkheV+h0lNPjuEaCJicqgrhzJZn0ePARaTX8ItzKhZeSSJV25Eng0rOZegnviJIvxrbII3lCASllEzdmGGSOqTqiY56SxQJhOSbidOXyiBspM0WBdQ6L8Bd2FBcDs+h+lD0+vBGOuj4U0X2lI0AGkWBKOGUccgYcjQMIAKLYLnsyMH0RvE6+BA4c5wuoKgqpVDZW7U/kj5Wt9yQlUpX4qSsQo+RVmf2V+cjmo56xheIsV2+cCezThlxL1w0r+2tG4rZy+UhVPVQ8IzWU9D9vYOXEX9gtRIaP8qs8oaBHHt15BhLphjcajkYvyu2lSmEU3gcPcVSOHhS60kwseDaTKFI+51Nxkqmg5ezZg0uVEB9h3lXWJl8jYdUG3HkiYOSKPGlbKW+cHyTmMsXFQfVRTwmk+5QJkLGgcaZ8znFzhjEw4MQ1lfVYCTzRCZm7M65PSlFTH0qR0SVx7tnWGRmEm6FBxN1EieF7IgqCJZQJMAg4X98ej+8k+aVuGK3nvcH6bGJtoaY52bdWzou4I8szuIWMj2ld+p2OAtk8r8upQXOBKFcvnSgNpifHamg5X4yqZyU2Z4FbewagozJxN6KT0UCEL+JxrilHL1JbJ246Uzoo1FPPo/QhHQNodAb5G0gbGo6tNepbUyCrqFfMbaSomAWJVRfU9IcT/gDZYVqGBmbeTnLB/tUubszRYWAK8gHIkvpxH8nb/yhK2Yvq15Xb2ZypOMpk0qmYjI5R8qMJoOHwQtloB45Mb/jNO4iHUWDGlHhJoz4bWHckZf/aZRu++6ZNd7YEHrZgIj6GN9WYZVlKlYaNqy0bVdpyOpZbUm7bAcCxKnSkvI5U0QJeleVmqkvv6FA63kGLGnCiGsriRCjHvhpYHIEdhUIkikvqOJGBNFbaw2rHBnLDasOG5A01Q5xjNqspjqo1xHGbeyMrXblq7Z3b1mGhZWmgRGTMqJJImXQdv6ouXJGdBS0Mm7iKDC7caqEi4KI0Rfx4wUUc0cb3m+7yShxiUb1VZ7BbdCNpQnJtsXE5/6QyPYChi7mdOt20jW7VaoXy7ZWBD2W8qbDderw/OJjMbKs/sn0puuwh4dMdDrSVmisKX5MIqM2H1syG1h5sWwmAvfGald7gBZFdVUdMSZWbdWuurVmj1fZ0/fU5hZ9Kz5kN1ICyRhuDoVWk+zSEM9+hRz4qUhZLNVUq0sKTP1zBKU+qBT/VEc5XKMfoWOMJSzQVgc7pSlM9H6s806as75ZEeLstacTAp/Ipi7o2lhWp/NRHQ4l25VJlHNQalp17whpf+0Wbv/CS7Z88bf1qV1K/SemUtrpo0Rn5DyCK6g2SmKS1mtW6rzbGg/vzMLRggI03yDJ1jq2diW3vjtUZZGLIC8vXa3NeFxzIpBtIRcFaJyypcPzZ6SODLKzKjo2tqZ7KC67wp7lkvNmZMwJZR7pZATL2I4MYPO3KrGnX4HZmvfHUttkFUToS+8YyyR7lWKk2QKZ4PLXZyLp7t80uvWmD1/7SppcuWWe/J3NcYnpjw+zUKWs8fsYa505bdX3dZmowf5NIic1kgU52di3f2rbytes2+YApnG1xD94cZ9GjKrOhBuKlHtcPD4Ms5Um1QMumWhLXwqiYqpHGE56Rpjpgo2XztRNWVZ4qj52z0skzZgK/NcVFKaYAVuqLS928bbObt2xy64ZNd29aNugJUALAmcet8dWvW+Wlr9pw8wnr10+4BeiGkPIHN0sA82XbOiY9DK7XqNYENDXGPUCWi9Pu7E7s9s5YgJMh4PFJHZFO0bC+jgIZL7kQA0rafaJ7gKxwC5Cpx4mTSYNwcUAfcJDV53ZGnOwEIEMB1Q+QUca6fHRYY8ZArK57o6ntjMa+Mw9vXavMkRp6TZFWVFqmnjWyjcGu1SQeRz/8ns0vvWW1/r5VumtWe+K8NZ593uoXLlj1zCkrdYWUCitA1eBqGBJjUeJMac2HfbPtGzZ+56L13nzDZpcvW6e351sUlCtjcUL5RTVRuu5cT5ODyzrpnudLpPaaC1zznPqo2lD637zStMqJU5Y99YSVn3vO2k8+bdWNM1ZqnRCXFDdieIeopuJc4qbs2De7vWX5tfdt8NaPbPj2RZvv9AQo5f3ck1YWyEovfMNGp5+yEVtVKR++p4jqEOuTj6+GFqXsFCDjfgKZp0VHvSvIMoEstmwPkKlDO8j2dWQfDUCmSDz8/aHK//o//y//W3G+QmRuWbnemxisc5EZ0xAUk2zUqiVrt6Vf1LkWxJQ/QnHODAB7bjGtRNknKtiA7SzlARXTwaD73j8lgmIKRhxQLLs13rfm9UvW/8F3bfrOJVeQa2vr1n7569b+xW9b40svWeXx81Y6cdLmTbYg76g0rNlXY0kHmstZtWllWb7ljRNWO33a6hunVNkV/2jWXPkAiL7IUOX09yu9vOQ0chWlT1dxLbtFelXZhlIZehJps1OPW/ulr1n7F37JGl/5mkD/lJXWTtm8I05bl7hUHmR+u9i0elPgayvPJ6xy+oxVT55SflWn4u51iXdThxj0xHllqbc3Nk2VKtUELhazvtRWmFpBdOhEvJzDtgbOlEVJxHqudQo0GdNkB6CB9FmGk1JJEZlV324q3on1VvlUQOZmLITYRAQpk+JNsZafogo4apR6jZdJpZk0yFhR7CJ/6lBeaDZSQf6z9fhwIpCphKxFoyIoaFkNjyMY4GxMZW1tfWCz11+17I0fWW1/KIBtWkfipPOtX7HyM1+SKDrpjWYVAJ8cII0m8GEFnfu3x1V9pWbXKifPWm19Uz1a7cl+EUP13KkqVmWNSXFCeo7kvCR+j3z6ewMKxwYqY3GFYa1rs8fOW/cb37aWQF9++nmJRgGjKqADcOeo5Ed1QkWo9qJuVJcCw5y8r5+x+uknVAxJiK3bMmhuyDjRcTKwVrtpTXWMCRxuLnDKwPEFndS8dwZyGMeoN+pZ5XSp4QUpSH50uQDZ+DDIePJgQRYtcgdF5pfHgwkqr16QuEsh8Ff4Lbz6HZ37UQ3j9QytHBmoxXtMw8D2xStZBiNln0WJg7fftPpg4Nyo88UvWPuVr1jp7FmzVsdKdcQjgiM5GjTylPDilS3H+5UzcZJ5o23Vxx63tZe/Yq0vPW/jzroDJp/qOUqPwpHPsJyJgH+JdEflqMwYn5NqsHnWTn39m7b2jV80e/xJmzXXBB7yFKrEocBB5MUd+qgkg8Rp+fRj1njl69Z95RtWldhtMcRy/Ybtvv4TK2/f8sk7OgHr4uI75UVcR9JhgH0EWo2vAO/9pruALBEVfzDTXAXS48rBk9zHJYWhXDHgyBAnu+2Iu+xLZ7n8tpV3tnzes/nE49Z68UUrP/WULDa4RBFelGOpyu3v79u1a9fs6tWrduvWLf8Alq+3kh9GzrE82ZpgJsuvKsV8TbpP/fxzNqp3xJ103z1QHuUlCrkgRulxU0XmH9Wvy5p98hmrP/uCDJDTNhVXkqomivrA4X+/t28ffPCBXblyWXm6rTyNFs8pO2NWM5R1xdF8+RvWef4V3W5bYyy99spV67/9llX6u9KT2DCFHRR9hJGEjqaVPH90+kSBPhbdQ1xSE8ApuAQiEptv6sq19AP1GDpNpTKVTlZznWyB2CLf+GEbgjp6me4xpTSU2e86mZ4xYc66d7cyy3CxkTWzntmVn9r4tVetsXNL6kzb1l75Bau9+JLNpKeUqsVb0UoEQLB//40bN+wP//AP7Xd/93ftT//0T+2tt97yZ+vSffgABRPpiDtpiBInEjv1mpXbLR/emFy7YfPRwLXNqjRhjJFQDRGzq6ARoIWkTJyv9vhz1nr5W1Z57kWbSvyyszelZ1qboqOQf3D1A/vX//oP7Pd+7/fs3/7bf2uvv/GG9LmZLHFxrgbDE1Se/MONpYKUJWLLep4JXKWBjJUsE5eV4SRjYNbp+Pittwl1RcWLVsUlixPqMjJY7XKQ5Ee37i4u4btMkRfiUoUNJnI4nk9O9wSZJ6akyQ6Z9E80FzpZZFF3KzP/VE1DOpmDbCVvgIydE48CGRarN00CmYDQmMt2nexb9u7rNntbuthQFs/Zc9b9pV+x0rnzvjFwWYq9r1FXWF7bv3nzpv3+7/++/dZv/Zb9wR/8gb363e/aD3/wQ7ty+Yp1ux278PTTPjGMUcFIv3caZoulXFcyWaDXb9p0d8tqsjarUv7Z4CV9Tjr9D3Ev7qK8ZjIwWuI41Rd/waaPPWlj5Qlui+INBgixJf3qn/5f/9R++7f/jv3RH/2Rvfq9V+0H3/++Xbp0yTY3N+0LX/iCbwmF5xgKUnkAP/vT7u/Y+MYVqyo/AKJ9VlbrmdM21iN/s97L7jWt2leCBX0SkIGjiI3FPkknI06V/D6CLHJ7B5FAcskLiVMs/VTrvlBOFe+rMNUIYRlGmOBynCtEHArSxYFrPVelMHTBbbYzr4mrzKWLVEYjqTcNa8qCrJw+a+VmR4AW9ykABsHFfvSjH9nv/M7v2BviFCOFmUwmDrw/+ZM/sX/5L/6FXb38vs9dhtIcsHFDRrpTWRZe6/x5q3XXxanUiZB5iwwX5dWB3DHXNytLr2Ov2KeeNjt9StwFjlp0Q1idKmI6z+0nr/3E/tk/+x27ePGi9SQyydfO7o595zvfcfBdFZejkUnCUyMNBlLZPkG65/zEunI4s8Zg38pbN327A9fFqFM5srhar36+ek2mPwLhy1WVIj6uPeRKXPeD7gIy3Za1Fy41KskzDhZjYWTO5x8ZmGRZlxoBBT5RmiNzLlDcY+6s4qKuiE1eci8gCq2EmRq5tLtn0+sSk5katPWYlc8+J9G2IQ5TU3boZ8s0BjIKABdAoyEd9LpP3noSOT+V2Lz0nkCGZ6VNUUK/1z8Gx9Y7Vn78jAyJtu5RVjWgl2GZBueUcS4QslhzunnOTDqiteGqDOqEwcLnDGfzqfX7PXv99dfszTfftCGLElU5lLks7o+e+N3/8D3l98eWTRjxd7hH7YJUSYTy6ZNWErdjLrgl9WEsi3PGSy8TCeOZ9FFvj4NEeHbNhuIrLB9O1JMDS3UftaaccL186mf3g+7M8QHicfKSEo4sudM/nyhWIzDMdJiwpLznFdfOR6iRIgYa3HUgXcHl4TTVfOrOhzUa61ZivAmrTfE4QHBEIeKdAlxw1HQ3iBUQuQyCEY0pQJE9zzkyzUkRSWyWOi2rsGkcKoDKEkJfzxIpwRi+QKzXrNJeE8AESokuX0IjEcPQbNQKPWoubjrWsxDnlHk1fxy5z4oIOiLZWaSmMLW1jjWkS6KrsZcIL70g5GuMlamynKvKayrF6vnHJQ8HyOS8bsmJZ+iTxng0JQR9CBUJkwddLSuFJ/ErLpfPRKvnTroB7uJUYQQERC8Vj/jwxih+iEX0lkpDvfcOPSOIPbjOnTvnzjnnCgG+U6dOSdE+4wAiPh9DKlxkVudsGFdPeh6I170o6iES/OSflzFKEuPegRYU84estm2JKz51/inpXif82sumcuIqEq9PPPGkPfusuHPBeRKlGkRFAPTKJFceDsDyqqGP8FNPhf8I83GIvKSUgqLz/Sxxfjh9KMjurOwgD0ivLDiGr8zAt3LJl83mUvIJ67obFaVztuz0HZ11pJ29d+MUyAHGJREQBwDQzx976DsJkL3wwgv2q7/6q3b69OniPYOK3z8vXeuXf/mX7ZlnngmOcQAUouLSN19xCy9uRHqHU4wr8lNGYT8cH3ktruv1ir344pftm9/6pj322Blf8kz6fE/9/Pmn7W/9+t+yCxeeUUL4D64E+XALt2SQpLxA1AtWaRpG8fr5RBThWfpOWlGmIp2V00SfNJWj6C7WZSJ6Ew0QfZWhC982PTQR98Ea8matZF12t+ZWYrWqHCreWb0QhZVJJY5VwDGglJfoRfR2ZURnDYmGxu4NG7x70cq9vpVaXWs885zvlT+vkSZZIU/8dK74W62WGvMxb0TOn3zySXvllVfsN3/zN+03fuM37GlZl3y6DzoADOW7NBvb7OY1m/z0opWkYGNd+TymyuEzAEoFdYCBWsTlhN2BzjzhebLOmhsPeKbDeIY46IJvHj3x+BMOsLVu1849/rh97Wtf9zz9V//137azj8mQEbgJQ5740Ul9q4L+nk0uvmbzDy57HtmuvfLsizZun7Ax3E1iNqWVegSXNXUUPjLhcXJvUVaBi/8qB5va7OzF5Hi0H52dxdd8XIKtHhj4Dc4ZA+Qpjp+N7rr7ddwUROahz/jnBKX4+lIf3ysQRRHeldnJTtXOnmrHDI8rZ0WUyiNbdnbVkzs11lmZ7Ywy2xmMLFMFZTSeD4mIA0hpXh/3rPvej23rD/+51T64avVTj9vmr/1n1v6Fb9q03fWxNX8phQoqKhhxgpV5/fp1H4RF3+Eb5mfPnrX19XX/spxqLSq9CBPfNFcJxrs2/fF3rf+v/qVVL/3UmvOh2KM81FUuzDlVtK8Rk2HDfij9RtfmL/2infq137TSk8/YtNaVZzjhssyAjGSySW5XrlzxMbzxOLO1tTWJyifs5MlTNC1ZcsBg8BA0p0bzgZWuXbK9P/jnNv3Rq9LHZtZ7/hVr/Np/Y/unzts+RhMrWsAHaanswAV+2GaP3iNWYbCPLDljvnk0ntvlaz2byNrC0EHD4xM51VLf6jY0tuNidUpFgCRf9wtkRXaPopRAZJFpDdbWV4UIsofzwCpU+r43Vb2kyCQMgV6qzuMx0hHp+TQ01/hhjwiUbh9/a/INI1lYWGSyHudbO7KsJu7P+Z38uZgtCPHIh0afffZZ++Y3v2nf/va37Stf+YqLT387R5UdJVCFF0VyRT5XD2fh49aejZUOliEFokz0YvzAvWlEt8DYCktlzPsjZvrlB44aXNUxG1FH3vTHMucLFy4oT9+yv/bX/pp9/etfF8c9K3WBsSxPxevGw8gRB5Oq+X7Pst6OzETeS5W+2JKlWWUAXP6oJn5KI70VRl+oCXXsIn4nkf8oC6tHRhOGWJSW6hmQUU7fxoEOJ5Dj2xPRWbj7Q0XOUqRc4tTYfq1EWZLrvUPZEjutKlP+kSqu1YOxsMZ55l/K9R0AF/FEnNTFjJUL0it06pXhO8zoMddQLPWJJS0ma7J56pxYoHrlaGDTa1dstrelXlusc1LF3I2czR9wRfFEpIULnqMf4y47u5bduq0iqvdKsfaBzEX0cc5LLNQBR74mVxIIZtdv23w40MNibwn3WATzY6RGHgAUHYHzoMib773hQFF4z6b8yypl1e90a0sgm0o8SzpsnrFpo2kZaPJmkT/CyREj6ghiEg6faJmWZ8bbgLZBtyNsjBnSnsyJMsqvoxjIYrQ/gt03KnJGrKsxHz7H+WsYKhQm9VCZKz4UVUzezlAo3f+h0LrAOOAtcy5YIVsXyDh6zyn4BeQLDhsta2yetGlTWoJ0pv7tD2xy9aoZOhrLJ+Q1VeGHEf6W1a1KVlpsi84aehb/5zc/sPE1xT0ZCgyKGLeIHDhG3hiiQKCxBKm2s23jt9+y+e1bys/YwRc87+NRKjt6F+RaY2/X8ktvWrkvIM8k3sShs5Mb1m+q1tVSh1++gRMCVv+EYQGyw/mg/kmB1BKw+PYSCxGqaseq6gKFqCKXqmAJ1/tDh+IjK0e5qHCmfkolpl8GythAGRsr0/Gx9bm4mfcSirkIGideUMkDRALTHw0BrFpV0uKE/p1Khcc/MB6Lg80FssqZszaSHjeS6BhcfkcK+nWrjAVs2CLRfkSi0mmMEE1wI1VuJsDub9vgvbctv3HFSqN9+RPw4BRFjQAcRt29YwlITDnV1MHq/S2bSH/Lr1620pg6oMwKdKB1Dzd10OG7/n1xcayyuGppuK8433Gjx7LcRvWW5WfO2Oz0SRtVKzYVp10UXKdcwbGQDG49++3gkqvknJTOq3Sm1J84Fx+uYIFiDZCps8UHZBWXmji9lncwlp+NVkBGAQowyaWPJYS4VEX4eYCsYn25yGD6QNQskw6R0eOVPaJQdIArcIbeEqKTzsjmK/4pl4oAqDhj7RqvgBUgO3na6he+YFn3hBTooQ3UqMxnlvZvOUgigY9IqrywlIQhgbks7lPal5gUNxr+9HWr7N6W0qt7NQHea1nZQSQ5h5J/dW1llXFbNUputbwnLnZV4d+0+Q3lZzT2iW1XlNXAPg6nxPzcXWQjUTyLk6gb1W/eVye6ZP2ffN9mW9d9FWy2cdKaX3jOZhsnZHSFuI2wiDr9VFe6E/fT8VBa8GD3Jx0szyZi2D3nYHUUfOdicupc3pkcZPIvzkoHI/T9ogJkXtpDDuIYoAunClFv5o2asoMNlosIVQOpp4yGEkHoXipsigHiWtXj9zilU/IlEhourNHwj/U4lsKfr21a7ekvWvPJCz7dMvrgPdt//XuWXX5DUm4P+asAqynci/BH75SDC/b2bXbpfRt+/4dWunLZOgJtU+BCv0x5iTArpPz6K39VNWQdUPRs8M6bNvjxT0xmrRn6meep8P8RCADAJ13fY8Pi11+10Zs/9hUho4YU/aeetNqFp30JNq+uVVWJvJgT4vujUvjGAp+oM8zUwXyjF3WqGlYlTMKHLshJxP2xCvERaWWcjKwntzys3vfkD3nxflVYJKWqKkNWFQ3i3WrhTwVQ76SRfPMV73JzX47Nlp5AN97DxOKpCoQVazQbztYnOzdt3t+zmXoh+75WWi2rtFtKg3E5UCpSHJjqTFGxusNBntIGOKrM8lTh92/b9O2LNvzef7D8zdetPdq2RlU6ZkUc2t+PI0Byy8oOLqGb+vMVIzrJhmMbClxwvUpDhkyrLs7MEmk4jJzqJFZ+KKyiIhuIR8YVgVdJ3J89bGe3rlr/L79j+9/7M7Pt25ZVGja98LzVvvotmz52wbL6utJouASgo3teiFdXqgFX+v27VF6nouIQFCDzHS17SmvMmwksqWJsTOBCMqmi+BGjr7hV+MQUDkX2iakAWYrwUMSe8aULkMVzz5bO+WQDezhgJrM2nWkX39268OcNzk9HgMZoP5yMlxgY2hir4hmgiE/1LUHG3rPVqipVnCYHZPviQNvbNpNSDEuvsMS5xhbpJIC4FUcA216tRUMi7vje+PCmzW5csuzij238l68KYK/5oG+jKoW/pufKjMdDFqCist0tD14GFmqQRpl3FZSv3q1rKru4grhPucIXfmOAVsmLikjguhgtOaJeul82tPlgz6ZXxKH/4k9t8P3vmPHBC+ZYz5y38ld/yaZffMXy7lnlreMlAqUMpSijC5A1BWoGYdFzU7v4gxWCwQ4GuY0HqAoAE6AFwIglwBV+OS4Alo73ge4y4n905DFfR0vSGgn/nMOFGILQtSqZDfH8dkGxJl0+FRxT23WcohA5rFxijDYR/AQ+PVDv97EgBWjyQXxVTN6Xci4Ls7y77a+VlXf3/E1yPkzPyH15WjgsRSnkZSnS870tm6Pj/PQ1NeT3bO+HP7D55fetsb9nTcQGX7kHYGKIqVM4rZyuko+56Rn6CytG2C6BLUFHii9nn7EBn5gWd8tHAoLyVhagClDZWGJ+sGNzgXt29V3L3nrd9n/wPdt948fi1luW02nOnbfml79hs2e/bP0Tp22ie2ynwB4gvlW9kvQ61wnVywdoGSM7wMWK00R89ZhvlE+VV3RnN9SUJ9e3Dwc4EPaIyD4hfazvXQIEB5p6UgCOXhADe5l6YSb9od7u+EdU2d0vja/xfUpkPmy9rvstoayu4IhKXpG7PWYwF85WUyWIi+Ulq0nHw4Jt5resvnXJ7K03LL/4upWvfGBN+S0116x06oxVHj9r5VOyRvm0jbiJkwCaK14GWa0nRf3dNy27IY4z2LeWKrepklTRwWq5zetERlHuXqE8oZJwGIQlAaw8kTaaq7lKNRuoU2WNlhnvXcoybj121mo6ltbW1Zvq6ghiIdnYdbepOkm+tWWj27cFrn0bjyY25k2mc0/Z+otftYoMnt0TZ6zf3ZA+qs4KsPWL2pZT3TPMQGftKFxNzwFctA2Zw5rnSEeVhjDIbGe3b/OxFH4s6ynvVrrsUIgVTvAA6WOCjGIiGpW5otS0DRFgArAtQKXRtFOn1qVTsXd8ApnzOlXM3GrVsti8nACHMj4QJ7g9Gtme+HpGvDOBbFoRyFiJqx5XHtimDI3W7ctWfuei5T/6S5u/d8nqAhGbvMxaDRsysq90mzL7yRQTwJmsqVy9tyZO19jbtmom7qISKIhEpNJGXkvhn3GkDJTnLsSjVEnMYbqNwHpo3g1QwIk88H4kL+Oy7q1c5xW9lrgPU2Z0NgX0YQLeuxSnE+D863WqlV5j3eYXXrCaOFj5/HOWt9esz3fMefGFcHRUxUHHDtkhSaB6g4vxnfLQAo8GGZPhu/tj2+uLu4u71gSwmrg+QxZRXEKulu7B0McHmbgN72BSmBjegI1L5On+qNSxUq2pDt2x7pp0M0bRAZm8+pGQusc4GdyMmHL18h0BYktuoJqaq/EqajxAhumeS6TVyxNrjHdsfe+GrV1+18bf/XMrX3rL1mZD5Smzsdp7QiNgiiotr2SdoP/BMWu+slTchIwI5CVx06hfJo+VfwJFrR9J/ogovfzFudIL/iK9R+l5I3NP1sc0UwOzIa5A5q/koW+qjtjsAYsc5Z8XoAftrpWe/5qVv/4rNnjieRu01tAsXWvyTzoi0ryO5Vn1izpBkkiEprgn88JRt9E2UY4oD1kcDsXF9kdS/GUwzQDYvlwWi0OJy10q0IMj8vcxKCo1MuXVunCsWvDvdMsL23VmPmYmAox6nnz6chNxGhyWoC/NUa9sMKRBuxQVO5eWCnjZUKU3b9hubd22Nx63kXq9PfMFK0kkq8YEpJE1xO1alZG1qmNr1zK5sdWtZw2J21oZ5V56UUOpI00bKjKfrwNoWCDUQCrWPYhm8Z+iwbt/tbciXVFuLgOlLMenfmpyDZ13lFZXorgpvYw3tOuzEbxeySGq+DyOwq91rP7ss1Z6+lkbSLwOZTlnsFo1Propw3aMXQEK9sx1iaD0fQDW2ePBjJO/4sQVfr70krOL44ypI3UyOh+NcCjcg6aPBTK32DB7UWbVK7HomBbBNGfUn8/bM7HLqojBROJAQIKrOBsX0dvo9YyljaZMrMcH7Nk9u1lvqP0DaPTGqWqUgVqUVOZLsTozvgFXbdqo3VBjCKhyM8SfwMKb7Bh21bpEckPcUgYDC2ppqVlVefC2UzNQYsUHUefwWnr1hznvPeSNVnakCVg6sv8+DlWAsbayOG+1gRPXqkuJaEys1sRlVhPoeKG83FZmVIYZnKu54TsP0SepFx91VCYxpOCAcLGY5I90KasPER0iPXIAATSKl8n6zdkQRgBryCByHVeVVZ5LDFMeZHERJs5XHTHeP/qYIIPoTgIabHzBzSikmkL3vMeoYHxoPVMhGdogZIxfxcAC24LzFjnjZLyGT0U2pMvUsUypWIVQB5Z/BglV7ao1dBF6OHtoZAJU7pxE/tDtpAvp4ACAwwBqtxjVIKh5PudXuCRKHWFOhL+30z+8hYOUTiy9XnUCgNKKOVDlQRxOFoxAh1O9wO1qekYvEsZm4twz9QI2d0Y0Mgrjiz2VYY9N3uJIueU8L8QvkKU8iVKdkjl+hBeefHkRQGMAmqk4OCFGFXVIfIj6Zajl70EQJfh4dGQ+4qaKqIKoUFOJOlkzLKVhc5KFoVAQBWTHbHbAxjF3zhybT5yrUqnI8J6AsCRvdH9K36ax/fYBWtxyr4rrKE+flDwqSnBn3pa08uxeSRdlSbg/kryTiopyICoPl8eD65Z3TJ1QpxOBbCp9l5kYn+0IryLOkvt06GODDLZ82FFLVDqFwXKpowNI2c56Exv12ekaPx78AMFV0goNzn0MjfVWOno1UJlFXfgBbuQ9W6mpZypIehLRFzfJE76IBQ5YRLEkPAvkKU/w47u5wksQES0iSyerN+PcUwUUxbWDqbgmN5QrHAPOMn/ICgklJ0ox+VF+4fJ8iIvOGI22zCWdjf901rG413Agy3osiSKQMXB9sBRFnkQBvTh/kPSxQQalrK1mkSNzmL6MRCDjjaNcnGzQE9seqwpWy1kUmoqJBY2xQoNY0DccvP7TUf9wXMS1nstFo6h6dTN1dshBz3HxI4yOHsmdVHgvIr/TeTJyifw28cFtPS8R94Fz95fuH3KLp8QD10Y/ilSKrlr4WLoYwMaxCldNpkIqKn/oHKyisLotBcKnkMZSVWYsrFQ7+PcCDpQgrpZ1dvDZg6BPBLLD5JGoohZ7xvvIMoWcCWAyBNiqSd3MAVBUjBdU/xxoWJt6jvMq9gpIhdfRUechoqGoaPQrOBuJy6kdggN67R+mCOvOGzSuEjkfUL6TC69FJvWPpl8S8fNsmY4bNx521d+9KfmMZPSPvOvn//3ca9UpyhTpJbtjlbhkj1ks9pHqewLIGAtTz0XDQ8IEly9cEQGw5iy5B0XLkvyMFKpkahAKMtbNnipxX+x7ILAVxdCBMsZVhIKLMXDoCx8V1JcoYwnyFI/eeHqQ/tP7mWnwhqYI3lJLl9qEwFLCVduF416YKxgi/ilFACLjQnau8sq+3IWxMpepKkWZHLoVzRG/CsNI/FTPfVdrV9QBGc/Dm7t7ENGjP7nRorIQ5wJgis/X/YvoNK4+uB5GwMiDxx+s34mweSZrva8OPVKHBmDyx1xMmBG6doeJEKDz6PQPIyk56oVY/X46l/tZ6b6BjOx41ZBZNeiMebvyQAn0BaCJ7e4OvJcFUYoCljSSKizVHb0WkPF629IASOQ+5KfqjeM1Dwvj4A1V3Ip/ft8dHE/+sNTm0m1mrY5lnY4Naw0bCaxAzIdksIwXgEL3ifsMouKUS2+qxWKZclPWcVWAoxqLqkwtdQ/iMc3N10F8ewLyp/AArCrHGBmA4/XBqIeiI0Eed5EAlQap/kb9sfX3B76uD0AVNqpb5svr4liEW4Dd2yyuKUqAr3Du82ejombuD9EI/oU4ObiQr5ZQwXjVbDQcWK83EODItpIVCLzR/YjvRTX6MwZpo4Jpg+iBiyIvwkVFLAHFkZNE1JgaURyHPet9bWujbaVzT1rluRdsouOg1bVJueF+mGnwhXtKpyRO7JxNnWVayXzQNRN3ZTh1UK7b7NQZq55/2mbrJ1XCptKqFpk5isi380+/gvAa21lRX9EQsWYMHUwAqyovqgO3JhMnO4LoWiwWHQ2GNp2MfVzMJ8JLqne4N2U55GAEi/xwnuK+W/Z/RqJsPzMtsqxMph5Bfn2hqbN1uBoK6VimdS7OpWbU7UU4BaD4ZIdKo0LhI1Qyb5G7uNBTCP/BveiTBRERDkrnC0cRmWiWaFM8I3HA8cZJq3z5q9b66res/NyLNj5xzgaVro1nDd/vgu0InFPKsXV7JlCNSnWBq2n97imbP/1Fq3/tG1Z5+WXLT25aLquPbkCD0cEis14yMsDFnYQflY0PyrKgA0LfqqkuWFnh68RUfkpOCVL5VwmOzTDFUADLJszNMhsKwEIvZoCcDnNP8jqK0wdF9w1kAMsBFre8g1BpsZpTIBNnyFUh/d5YYANo8ruQkTjA5SfFD2s1gJZEBo8JgmLsRFgRfu9KRdzRe6c2lujuM360fspaL33TNn7pbwpsv2z5E1+03vpjtt/c8C3O+wIbe8Lultq2VeraqPu42ZMvWOflv2Jr3/wbVnvpGzbbOGU9RRudS5pZAlhChbsik9DKqZcXkFXhynGLuYW6ylZTWX2NWOE/1Qg/JwLoGZu59KTvDgZ9tySZGfGVynAywIbxFfC/g7jnRkRxfpSf+0X3BWSQl7twEIcAGboAeoIUayFkMBjbnvSzCQO1tA5EZXqFFlW5UniU35p0tLqUbWYDfPzJASdOI3+IaIAXiXPDI1qSIpvxHkExZ2jTkWXDoSvK1jpllfNfsfYv/nVb/xu/bp1v/6qVvvCSjc5esNG552x47os2FrDsC9+w5iu/auvf/g3rfPM/teqzX1PYMzbdVyP6psITq/pwQSR5d/KMxpnK4R84xekemIJzsb8uE+BcF14XtBB4hNWx3xfAej3L2eDFuRZT6wGw8AHIPjRTD5w+1iqMu5ELBdrYIRsgwagTDPz+RBd8Y3E2b8svc2dVa7aadmKzY40mU0LUqEig83j0Y8zHM8a1n+gf70cO9635zg8t+5PfteaNiyYhZywJWwpUUYpPBHeZisv4G1X67Uns7bH69OVv24mXf9Wam0+JU6rp+BBTb8vmvX25gZWmiD6Fx8pttq3c3bRSe1P3mopeivatyzb87p9Y/oM/tvXeFeVB1rQ6w2JJ+Cp5/qklTss2kb+d5gnrPfsN6/7V/9wGmxcsr3UFsppqJwSc1ykBXK/yE10HZKgdPoaxs31b6ocA5vOS4mKyKkOxDx3Wfavy+C1pNR6/LGil/pJ/Hbi7+uST0IfshfHRKGXW2e8RGeN+vDgaRPHZjyFXpdRq0rv81fsUSo3qvvRfkaUw3KX5qMgquxFefkugiI17UZiZOy08Fsd0rTjcKVXlA4Bf2+/ZH/3wR/beds/Wzz5tDSnvOWvr6x2BacPKJ86YnZR4PPmElTbO2bx7WhbphizTlkT+zK5euWqv/pt/Y9s/+L6dznlzayCxTpIqxwrAl+Q1VJD4i/TDcf2EzR9/3trnv2zVzqaUMaWPfqZ6oLMSDTGF40Kw0cGXrMtKZ4/cTADjrXY6ULwFLkPL6znSIyxnUYurrqDVU3k87Cs9TsdPSvdFXJKJAJLOk4tHThSa3uWKaOFYxDcZTay3P5SOJq5VdNj0MgORRUWH4ovjnN5eYW9+NQrKvHtWEI/AHRdL8jGhlCc5FvkxG3HlrXftH//9f2i/8//83/bWO+/aUGpjLsjOyy01eMdm7HvRWBPw1mym6znK/ySzi++8bf/4H/0D+yf/5B/Y229ftKnKgl5Vqisvq4W+K+FJJREg682u1ZrsgRsKvoNJlIrg5S+ckx4wJzmQmMSImkknY4dHf9UPh3iE8xV16JzYA6+6u9Nhn8n9rHTfQJYyc/eMqQpVSVQIegPTTyx6Gg4y19GYDmG8LCqIsSpQV9T2CmHS12s1dfzirSgn/N29OojSn6vCadCmRPcJKd2X37xk/+ff+bv2f/zvv2X/4d9/x7Zv3LLRYCRRJNArb7kMhCzLbDga2e2tLfuzv/hz++2/93ft7/3Dv2/vvHVRli9vSPFFt5k4s/S+u2fhIOFPea+01Fl8v44QaXRShjCiQx0idaCwJHsCGK/gyZKEq6s+GSZCPN5JH5KhO6v3gdB90ck+KpEQZgCj9fQ7PlKVleONo1a7bmvdtrV82TZiIVXasqKYpuIFkBNb79vkz/6FDX/8x7aW7VgzB8Dy5704eU4naXYeHQsjQBZjuWN/ennLfvv/+6F991pfOvw5e+6FF+1LLzxvX3ruaTvPO4+drsAlTtvr+45B7NDzk9dfs4sX37DxjWv2axdO2v/0179qL29Kv5S4bKhkvPISgD6CCvbEODxfs9s78YRVf+W/tPpX/6qs2bUYOtEzwrvkXxRbOqV0rtF44luWsiXoTIZGWJMo+apJ18UiyCJYQQsL/iHSpwqyRKE1lHi91Ca1lpTrqjrqzLrtrq2vrVudz7mxOvZAjal55KchBXtj5wPLvvP/Wv8v/8jWJrvWFI5cP8bagDxcCsw9FdG5hc5KfBZw3d7cN/tH33ndfu+Hb9n1bGYjdhFq1WxtrWldgb3WkP4lC5QFmD1ZcDRuJmWbRQDPylj57772rP23X79gT9XGVitlUtiR8EngHUXKh7c3IGvavgyOxt/822YvfNP65a7lJYnpedU5GboXA7UeShwSTspYGCCbzRIHIy8AjG671LqW5Q56FEBWFOXTJCqEhlfl8FJtSVbddKgGksU2GNv+7sjfEfSPN0gD9jGxot54eZc+y7yjb4W+0Dc4OIQOHv18heSVSi9lIzvdqNi3v/CMvXzmlJ2WTlUXSifjkX0gkfnTdy7Z6xcvSld7RxzsmsQ5wwTSfyRCO2rUF86csK+fP2enpOzDf2rEXXCqI4ne4qY3LuYqQ3QziFuUR+mzLwgbwrBYk+hYBjUQuHa2dvwNcF98oHt3Aiycl/sRJEr9qRFVkCamXbqpoqqzSbzcoApk2GDcn9j+tnruPgvuaIiywKiGwfKSw/yfVOs2b7ekkEuNJy7iph3hVt5YK5Wt++5oBuc07BM5sRPloX31bNt+/eUL9tJjHV3nJp5qdSn4JfElXwJN9cBdZlWrCyRruvPyqTX7T168YC+cbltX+hjvMfqcZwL3kUQG3DZWvLG8Wia1W5RzXxdOt5MOWJlYVh3ZpJT7PO/eXl+GUd9m0ldLE+le4rh8B9SHKhxgEbMXz2l59ijRpway1ASpGRxkuvD9zuQQAb5Hlo68MzmQ1cmkb5YMAkx7wMYENw3El0YYN0iUAJZ+fo2LtBBBnjZgFij4kOjp5sS++aXT9h999bx95bE1Oyn/a/LUUWO1xGzr8ttQR2gLSCclEr92smX/xctP219/7oydrU0luiW65H8prHB3IWViPkfY4uSP8Tcf99CfOkqFYRx1IDRI3jLa3x9ZX3WQqS4YXGWjmcpUTmkSw50AS3cePfrUQJYoVQMAI3H0GMZ2wgxH32D0emz5uC+OtmO7W3vW36OyxS1oASf4kUKrcTxG/RXQWgHXqgtv7s+PwI0pmKGd6Zr9lS+ft9/85pftW0+dtmfqczsnEG5mua1LB1vLR/ZELbP/+MKG/Y+/9Lz9rRfO2TNSn7oo3a7usaAmBpjvTSSs/4s8UwHiX94xFI10gWxUsv6OROQe2zwRI1NM8laSqJRawY5KvsOS/OOKGIurR5c+NcX/cCJesd7YnMCRQpz4u4uqtKR7zaUvlet1q7IBi0z+pnr8qfEtq1/8Yxv8+9+39a1rVvf13dJl2OzBSVwCkQQpiVV1PE1lESJXkpMK74s2bGtUtcs7I3vrg217+4ObtsvH9H24pGpfkg72C49v2AubDTtRzcXdlEO4qxwLJ9k7LBZsBk9zWiZJQb2MrDrh63B9lWv85LPW/vX/3gZPfMX64p27+5l0UqkIvLYkwNGNeEezPGdesq/aCK7JkHS8XPLR6OfWukxEwpE4LQIU4gjIECtT9BeEgxqGhYIlNXijUbazsy1bv/TnNvqLf2WdravWyJmrA2SJ1d0Jsohbl3AfnXNg9YMDWelNdDFSmIHS3JU+NJR+yDufrIjYFNDPyEjpivNVShOCC1TYk0QFp2TeUil4Z4l00sHJQab8KK6pyrGvFMdPfMHqf/N/sO3TLwjgSnskkCr7NYCr3FEeNg2uiKuzoyXXEEPTLixX478H/Zxal0uinqLx4QCpYqV/qNcyBuTLVXSNrlaS+JqN6O1D6/ekEPcGNlGvd7sKjnhHpd9Zs9R3IgpeEceoyYptKO616cA2pzt2pnTbLrT69qVuZi91Z/blVsmeEsDW2LlHecECBJy8AY5zgPnkO1z03q3JUyDEkeVN/QGfK5zZaKhyyHLldcKyg2rgHKwsUMc9QUsAxoWVerzooeU4BjGi0hM5f3HFnHvoaIwHUcm8fT1UL1flZ9LXpAyPpByzItV1szsRVlA0K+jytftFislFaDWuQMrUKdsm1KeyMqeZdaUbdqcj6yjNJg3PSg758flJfgoDD4RLxazqvfIhKpL1F2fkFeOFD+Xn45kMjJLSwHIMgFX9W+AjiWQ4ZBgzdEGcR+Pl+WjOAzxkeqjdoqj3Bfm12inuqRFdyWXjXHER9jhVAzRmI6sgHsWFqj7ccGcRQgCGi2Y5CK6FU/yhy+kKS6/SUJwtq7O1uVKtSgli64GyHNIXpR2RyEuy/sF5RVEGYC46GUAGhTo9hLXgtHIkq3Bu6So+xr1qMi6qE4nhfKD4pNyzHAnR6AABXCz59lwuHNEUj/XvQ9wjQA8NZCix1cLRWLQB40fsx+U9XTdS/w0NjaGOqTXEZZpyDaZVJEajpj8iHeEVXCxOlDZcCeA6t/IHReac4i73w6UzqvHoqoyQKousyJiWEDgxGkZDa0x61sz2rC7FHs6VRC4//9qwrkJv1F0cT9P5yr1HnR4ayBAwvp5dTnXltFqJ3DxcgQx1tLLMOqOBtSYjiRdEafii+e5KHnGcgpcFZlYp+Unu49JKWOcyxaULuwJg6HMM3NbEweqDntV3r1lnsmUt9C/e7pJvAO46mIJ4/ejIOW6R91V3DOihgUx15j10MUgqSpWYKhKsrRLir5VLdO5s2WzrppXFDRA5qz39MBHH0lFczpb3Vumoex+dCJk4Wji3ApUrOPIM01EgY1OWlvLcFMiyq29Zq39d1/uuErieB8AkS32tf3KqLOf4iu1wKp88v58ekc+HQm6huZNNSU3JkZnE3Zb6VBwBExuHVIY9m96+YeNbfDtcHEAiFEPhDoDdcePezZHSWrqPR4dDckwpxoAwnAzYza0qS7I+Htns5lXLb71npdG2ysEWoBg9hJCSoMDUizvpFohPj4f4VtxxoIcGMoiJ4nABKRolKjqGLvgCSGM6kYgcWWvYt+b+luVX37TpzXesPtmVch7zhj4QqlYpzaR8z9OAbmqIj9IUS9/hDtJHiSEyv3TLU/2Un1i5y7lKyvyjjJdGv2fjS5esdE1is9+3tlSAOlNVqPfyHu9DFoYCR8Vw91w+uvTQBmODP1HxfiGil7P4Ds7Eixko9zNr5OJgaoBse8dFZPX6W9bu3bDmbCA9HRGDXxqvpsaoqdsoMsauXA9CByL+aGga2c+5WSRdeJDjRtzkavn8LrQahSjKckQgV9DwrPwoC1jFbEY2zyo2LK1Zv7Fh+anH/Ktz9tgTNl8/aZN608a8yeSdT5yMKBT3gVUnx4geMshCBGBt+aAjvTifyKwfWHMkPWWwbxW+4La1Y9OdHSv19q096om7MW4mU78ytnmZSWNiE8jK7LNKYzLkQL+Xo3QOLDXO4lwni7bym3LLxuNqaXbeg9xjIvwfEYaksIL1KH0DgKkjFm9YXres3LJRo2Xj9rrNNk5bZfO0zdY2LW91bd5s26zZkje5WsOnuZihOG70EEEW4oCxMHSUqsTiXPrWeEf6ye4tW+tt+wsj1hfYRrIkM8A3lxLMOJWAInDpoRRpvqoh07/C9FNFoKMRJHJTWxSmngPLr5cgizv8L54doBVN4m7teiAYno7wSFIS5zyKIRo+TCbRJ6BVJnQC5ZvdI3WclGs2b3Rs3FwT8NbM1k76u53l02etpOOs2RTQFNHd8vOI0kPVyZYUDc0yY9axT4Zj6+0IcP2J7kmACjzTqjSwesP69RO23zllW9W2bedlG8l6mDHd4q3JOBMsQucCUxSPZxy5vt+tk+L8CPEqP0wlZaWKyiGwbJy0oVy/u+5fg5t3Olaq1202UxnQMdVLWBXLK2+TyUT3sU7VQe53ET4FeqiczPUYcTNfgCdxaVLwEZeNLLM13ifsDSwTd+PjC4hSxslm86aVqxIbk22zG+9ae0/62ZzPz4wUFyISQPk7ScW50nDZFKITPsYAr9/WXdIvzpbk/qL/hR8/PUj+IPzck4ir4GQTAWxgdZsKWI1zT1l1/awNs5INx2wlT4bUoeS1LA5m3U2b1ZoOyLlEZ1aTaAV4oGyRn6My9ujRQ1yFgdAKR0u4CAMM6rFsJt6Uol7J1XvF2SRbBEI1hECG8lutCJSj21Z+76I1rr5l9cGW1LB99X4mq5kbYIqHV+ZkCEhrLmEkACxPtRCXcSHH+aEq8MujAeTeF7TiZ+V+GreL6ClbpI04HIoDD9ki4QsvWencl2xYbjPt7sGZ18wR79LBZhWBS+LVlX/pYn4uP1MAix8nTyFOH2H6CF3xQREVtYQZxCeh2bI6U2MMdN5DPLbaNmivWa9zwva6cp112290bdLiix+P2aTasSnzjv7mtooDNxDHyLttK505bVmrqeuw0iA3NvwXE88fjVJjHnaHqIgOgKUXQZYU5WWVWCa9a9A8aXv1NduT/tXjbfLWhvXamyqrRGhdzysCpOqBj9tPFBTwOVQ9jbuk/4jSQwQZ1RS9PJxqT3/OaRALyhkNlVdKllfVMJWqzqWXCYQTrMiyerq4ArvuMPgRygrFid4/k35TkqI8VThi9+gLDhAguwelNjzQjqs3Dz0ksiJCDj6QSv7di/4tRFykzI7X44qsSuV9orz6jt4yCHJx3lxlwzjwMigM4hEnnh7L0A+k75E+8kSrPPIUbRiQDAcxiQ2HogiqbNgHY2Eup+RHjcQx+FX8oAS0RHH50Rsr8nKICF5E4VwMR1aK7NxJRf7S+Yo7ENlnhFJJjyXRTlJX1Dj6SVdZQknwq0r0yiK9s8HUmGp5wLbgDI6EVX/F+QJNcU2YKVaeHrCPRy5rGBG2AF4RFUvGrcZwCrpUAk/hS9e8fcWWWAfTPEQp0lV3TOnYgMxffXPHhepc56AM8QrFAj3AxoXu0ogSs8bc5qEWYmk2H2UtS+9L4aPBqY5UJYRJ94K4A5SZR2SbATZHYc9ZXvFjoJW8IeZKtZpVJap9kzsPdzB93/sCHXIBbtydlFJP7mhfjz4ta/CYkHOKdFTuY6rlIHFvsYWTPAMy//YTEAGF0tPKTTZWYZjjY5CnSSyKv9GwipwDDIsPKPFczkEmg8VBfih7nnfPUQF9/7dK4eOzRMcOZBAgwjDAKOATOJzH/fRMHKQmEIlbQXAusMhYlCvTMh7mbb4nyeu8AowC+mecC3d0GxfQUFwzXi6WpVtZP+FvUsEt+dQP+GVJ+Ky6ZtY5q/jbyk/itsqkzj0W5ds/2aNMcR3EWRhAadijgOGxp+MHMhqGXOuY6TgRM4oBShormmUm62wqy1MI4JYamrvRmDTdlK9oNTcEwoYDLJ4ll4gwyXFfDV9SaJ3yTctZs2PzRldiWWKX++iE8oqlmwtc08YpWYqKvwRHjXiJya1FiVpcAOxgE3Anuc8KHT+QOQlMagWfp3RwiQqweMPpXhKX6EP+Qq073ZBCXu50BDI+erocPzuSDoy8Js2KoQWGGCru5koHbkW6ZIE4GYJgOGIZPwmTvqrb8xbHuL9CfqkQB0d8jz0dW5DBkRB/sTM2rRNKf3AHLDiJSqxLB5/u6OBjT+hjHYnSJmNt/siJZk3OaXEjwkPEzdsGPmYFhxInBHAMo6D4x5iWnumcd0R9lF5xOADdKR8OMHZkXNXXlmmsnn5W6BiCLBrLz2RBxn4S4hjO2nRTRxqwzHe9cfLPErPikYupUkvgaMJpiKUgzpNLpw4wOU8wzhmWyNG7yhKTdel0cDWfqWAVCADjWdmNAhR/16yKvMViSuUXLgtX8zihdLyTItV7+Xj06SGDjNbDMrub89ZdoahufvFkWf3BzcL5AC1bFwxHUuSZVKehi1id26ixHQwpnrtR4j9yBeCWXKmIA04mUDNQ4iCTN8S4W6GF86CpqgtxGW+4+4PPPD0EkBWNlly03dFu4W+F/HLpyRtMZ/45ZbkQnmrcPLfphDVnkK7lfMQMgKmhE3x00DGlEy6eJKCzUlf3QMqc1+XirnNPcTDmTX1u1OMsQFakw562zrkApJ57devoY2TyU+RgQcscLOmoe8eNHgLIoJVqW63Fw452cSUYd5j0UA3mH5IQJ3GQTdWAamVA48FpWD3zGDwuroHh8t1Ktzx9yXbhCmDFphnFETZICEUSwMCvqq7JMmnEZKpGEuEgfwKY+YbpNZ0HuOJ+RapiiHHAuAhTkMeuW6RepHTAHUd6CCCjUkn2KEcPj57vzrnHwYZIV1R4AAW/NH4AJ8Qglh8A0v0Kx4iP4QXXj+Qz3NEUjV/kAXBwvciLq/kR3NPBT+QBl94lcKXfQl+L+IIcKJ43P+HfHQTAfBxQj9OeGzjmRI8j0KiRT5moWJJNLgFLzle4pnv4S25JfuUau5xzBh2ldzkGki4kYLGdU1LC8UtDrzKrxbDGIXILVOkzDDHV0YGJPyWAb0SnNzVxFQCLeCUYXazyDJ96Ji7neVJ4XOJOPjjseTqaCM0z8OrlWnXu43gRLfAp072qNjkoHQ/TQX+AhxhZ8EeDMs3DWBjW3bwGJ4kGpoXQq/iAK34J7rc9jvg5B5HLBYKJAMYuHOwvzT2esHkyvgjuLa4I0tdUSuzK4zvzBJRIt85Qic9fKg/y7xxNcdckLj1PRdhEXOHSFg681LvquPcQGuxnpoeU52iIcJzjpP8UG6As7yU/BymFCuVanKbgbG450vsZIFXjss+si00CuRdAgVjVhSJgHjNSiCNe+D+v1K3S3rBye71Yr0Yci1Tdl5Pic26mW2yKF29dhQ8wCNiZSC8i9gdw0Pj+QLq5pJWYdc5zOSJy5zcP+DkuRGk/ZSpqyxvssDsMsIKCdXhTc840DoMG/qGqOYuXWXLDT2cSjzkWH7qQABVAoKAc1cBVPjJRs2nOch1Bp2jDsCDlBJpSrWWVjTNW6Z5UPL6vYuQDvz7WpZworrkAiAXpc58K6/t6cC7/dABegMkFKKzPKJF+hSHBnbB3ueYpzylhcVfx+5eF5dKwiw+9yF+qHdxxoIcAMrXUKiVFqXBxUDOJJZVnasCpAONbXE7FGOZSc3KrlcbWLg+tlu3abLyjSh+LgwlkCjxlfX+tY+Xmmq7riquieJSOGhb9alZtSV9jEDUaDIABTl+PJn+zed1ywm6etmxt07Ja04GLPwAgoaUjFquqThyvXO/oAZukRGTlUkN55PM5ynez7cuox+iJDq7M5tOxTUc9q+RsgTVQ3oaKiXcTFIHC030AE0Cjy3k6DJ3MZKXKeZORl0PV+CjTQwAZRA0dUUvUs5/wLBRqdiDr1mrW1rGeja013rfuYMs6uzescvsDs71baii+sAsXU7h6UwBbFxY6agg1tm8aHGnBOzIBz7mTjm4BKhE2B3Y+KBwgHicCzri7bpNW13KBjNUevheFx4OBwtylgOfLwFP8PFcE6ICAEstTcWSttmXMBhCS7a6yfctvv2flW+9ZVx2kk+9bY9yzGqDzl2UYl3NzwxsnwAvQGBJJBtHxoocEskSqMGcRheMaMUSTlCbKHK/I9a062LXG/rZ1tm5b98r71uDDWRdfs9n771ltf6AGUnCFZ3//WXfNSp0TAgFrvXQt0NBOAaYkfkhKoNB5Iu75kIEAlTckTnl7u8FKC94TQPwqvFzqBG4tqvamVQFXYVgNkldn8pcrjVwcU2Kz1ZHI3ZABAmfz7fKsmQlMN96z0ns/sfJ7b1j12nvW3LlmHTpOtmetWc+as7Hv+FjjVUHVhXM5f90veBudzx1ZOQb0kEEGeYsvHbqNxEd9OrDq8LZV965Z9dYVsyvv2OTt12z6jsB1+ac2U+PM97YlcvhYq9lQoOKNn8nmY1Y6cUqN2vD40MNgBGmKxzeXAxx66kmKABhjUA6wusTr2gnLGl2biZP5NgECiH8isMhihCMuVWBb4ldhMiFoKrk8L/Fanzgr4ldcrrHxmM2Vn75E+Ig3q5TP+UTiffu65e//1MvjZXr/opWvvWvN7Wu+RQPfCKhLRWAghbfs2dvMt2AoyLNwTOgRANmd5NtEZUPLJQr3rr9v+3KDm1dsKPE4GW7bdK5GqgGIhuUtca21szY9+bTNzz0v96xNT2z6J2N8aynpPXMa34GmxqkKRD5+5TyhcMHlXCzWqlZZW7OpuNjU14y1dR/xWDBb+Uexd9BWy5LK4lJNOCbxCBACGJ/VKU2kZ80a1uBDXY8/Y6Mz56238ZQNdD3pqiNI76tJpFbld9bfs+HN69a7+r7tXX7PBtevWba3KzDGvrHRJXR0kIVwPk706IFMNUiVDtXomRq4tHHS5qdOW+nsWas+fd7mzzxj+YXn5J632YUXdf2K2TPfsBru8S8JcKcUXhrNYM+m4grs/cXKVeLkfcxqSzobY2gCBaKZBvNmAzRYggIZm5tM6xKX0s1mArIP6uJR4jJgGVDjG+J8GWXOigsp+FiXNV5I7vUt3xJIehOlKWX99ONWe/YlKz33VZt5fl+x0tNfkfuS2fkvWOXJZ6x67mkrb56zefuEc0BGcxh3M3+7Xhc+vBMgO270EN8gvxuRHXQRtupkjzKp7j48EPfm7GmvSme/e7aMquS6P1YDqDHQm8bSZwzrjZ0Yr79tld5V4WcibtSwUX3DShdesPbj5y3ryyp944fWuX1V4nmkhq3asNay/uYTVnn+l8zOiCtKKZ++/2Mrv/2qdfdvWkvsrzSXWC6vW/mZF6z+xS/bUHkZvPNjq3/wtnV6O4JeWaJRCr84VmXtnNVOnbDSZsuBzQbGfB7bjQaJbXAuIei2pX85HEMEHZJxPl1jmDAcE/fhB6QfHeM40X35PPT9JWcZqmQaghF7cYpa2yaVuqBQsclMlhrTTzNpK+PMxuzn3+/ZbH/LSgIMutpMuo1tf+BbUJUlKvtYj63TZhsXzJ6QOO20bSpOVxYQm/2+6z7snTGWzjTceNzmG89IQ2f59ERSatvq2zesPhy4P98+VH7LnU1x2TM2aawrX3XL+ZrIiGcMmwhq/X0rC5h575YNBztmsoyxFB04yn8ma3GsMo1VPo55TVYvlqw4KdaoGxvFYLLPjTrXjd9xo0cQZIkS2CTGdMbA6VQW11yNV+rtWWnYs5xvke/clv6yZfnuLZvKod+U2GbKhxHUYLxlfuJxK51+ziqPPWOlkyfjo6S3b1lj65Y1B0PpPQKHxNpYgJmffMrKZy7YSDpZXpZRgRK+u2cVWbFlxavIXRebVCVSZSCweUpJ4OBDDqhMvLE+R++TfsdoFz++6jsa8TGyzKYSp5MR366cWF8MeCQRzjgcE+kM3sKxfAyvcIBrMQHvXOz4gewRFJdHk2+dlEuE9netNu5LXE6ks6jRpTjP1fgVKfmV8TDEquQQn5Fm9J7PzFRPomhLxNWb6lYSneJ41ctvWevGZasLlEwvjQTG3onHbCrdafbsV22n1lWqA2vsXLbu229Y/f23rTa4qXh7knp1G4gzzp9+0UpPSKdqnpTuJ0Du79qUTzePZWzkQ+VrJOAo2wJdLhCVZGFWGV4R5+KLxQOlya49vPHkn4kW93KORd4dTNHRFrQwb48XHRuQxcu7sjrZMM/3iWXgMjmZ+pj7UwlZeUPXcef6nU6qdbV0JnwJALs3rCSRWpe12pAYI2xWali/ecImj503e+4lG559xvZKTR9K6Qx3rX3lHSu9K6DtX7ZSLl2vojASraONszY7dcEaG+et1N404wP84kbMTkynAh1HYcT3V4MzMQ0l0KNvMSnmE/DiZGl4hbE0fwfAc63fgnMdP2Ct0rEBmeNFle0g8gusLYHNN76TnFKDVNiFUaKvKpFW0/M5HEXcrTZhr7NtK+3fElAEEmYLhjsCpYCghh9W1qy/flbW3gs2P/+89TunbTQXB1S0bYVt7l43u3LRSjcuWnn4gdWznlXFdXoCb946aZXuExKbp6x8YtOq7TWBuimRKgsWYwNuKqU/lH0BSfmMiXnUAAFM99PcZDAtAYo/pR3wOt4Ag44VyNByWBQI0AAXXIxFOb4Dto+m6n4m3UlWoQ33bDbYlsSTeO1JuRfg+AJITc4EEvGi0NkkFgeNk5afOm+1p1+y/OQ5H9j1Va1KqyF9qj7uWWnnquUfXLTq1vvigNLnZtKv9EP0lWprPtA6abTcSKm01lwsVtsnJA47Pqib8zFYlHl0L/QwAAfA0MFUsphwj6IGF+MY7rjT8QGZyC1OcRiWQfMd7tpsZFVZkKWsL44lXUtgynpbAtctK4+3rTYVx8nHsjLF3SRmXUhJ5MJDGMUftxhqkB62cU4K/5M2756TZdd1DkN7O9cU10Gklplb3L9trZvvWWXrik2VDumySzdrypSKuBaDtrI8xeEqEp1shzATiEus5mC3RLn52obNOus2Edhc/wJGiEuOjiiaQycOshiTKx4UdGyaa0HHCmQxiyfOMQuQ8TGv8nhP4JKVubdrk8G+gDUWoIbW4INfMz4fKG7DuBO6jhoVQPhUkzjQfP2M5euPCWwCQH1NVqFAMIeDwTOLOUORLp3qAmxX3LEssDE0YeNdqyu9yhQLcm4T5Ss6gsShghIaTpeLu41rDVmvUvzFKesnz/p+ZGAH3ZF8OcjcESoSDJCl+xDPIk/HiY4ZJwNosX6rIhHpFiZW3EROAJjP+Dbm1L9dxOQy3zdH+xnXpMJXioZzoKEfSVcSsHJZfGw7gBibMdgqkCCq4iu8OkntK3IDYy79bjqSyEUs8+U6qe9Ky4l5KwXwLan8b+7jXbmsx5EAmCvvVXHPakMctHie4g+elRKLc6CXzoPk393xomMFsqDgL0y1hJM+JmAtvz8pKeXiNMCCX/bMQGXzJhPr8OYTyNg2lPEpB5aewX0I4fzIQXaQfHLdJ6rRBxG9ArUflR89963fE9tzmsd+HaTP/XlFRknNKiwz0rV3Abx7EJ6vhiVGz5Ao7ruFvbgHrZ4/unSMQJayqWOBnvhQqgsoNUOCCmf8VyPpMdzC21d3aCQ4GU+5l7sYFSBlqKYm5a2gBDJ0Mo/MielvAVZpxwYupB1CDpCxjIf0/ZHH5HzK/ed+E+6L9ctRPhHZ+CJvngb/UmKLmwcoQLZK5OHRJ+r2+BCNVaxEYH2Yv5mkxooFMTjW48fLH4Alq0jBFwJ8HVgRzp3OCeUjVVLc/VPU4obxEgg+jmrkAHNdorAhtNXFGmsSj1VfwSvQsBeUwMPybDjWXPnAgGCxYXkmY8VXtlZUhKjyw3A5QPd8ePzoGIGsaHgaknM4kpz4gp5RDDgDIii4lG9N4NyiuIeT8g8oPRrCOyECcfAFtS5AK3Q5/4l7JEWexz5A6k7AYipJDj7G9D06nR+L87mexbfDGXaR0y/xXeDssCfJhUtpKf0jnGfggDsedIxABgEMEAK3UEPDRfgBNkDjnI7KLwCEPy+iGtaVfQC2BIK/FCLHOatiJckUXBCgxdWIB5u1AKziCKCSxkG38FMc0/3IJedxy8PrJDnKopOlc1q9cTd3POiYgQyCe6nhBA6OdyeeHeWgo+4F3Xnnc/pZ6RiC7NOl48k7Hi36HGSf0wOnz0H2OT1w+hxkn9MDp89B9jk9cPocZJ/TA6fPQfY5PWAy+/8BnnbcSviLcfsAAAAASUVORK5CYII=;" vertex="1" parent="1">
          <mxGeometry x="195.25" y="370" width="63" height="70" as="geometry" />
        </mxCell>
      </root>
    </mxGraphModel>
  </diagram>
</mxfile>
